<?xml version="1.0" encoding="utf-8"?>
<!-- Generator: Adobe Illustrator 16.0.0, SVG Export Plug-In . SVG Version: 6.00 Build 0)  -->
<!DOCTYPE svg PUBLIC "-//W3C//DTD SVG 1.1//EN" "http://www.w3.org/Graphics/SVG/1.1/DTD/svg11.dtd">
<svg version="1.1" id="Layer_1" xmlns="http://www.w3.org/2000/svg" xmlns:xlink="http://www.w3.org/1999/xlink" x="0px" y="0px"
	 width="400px" height="882px" viewBox="0 0 400 882" enable-background="new 0 0 400 882" xml:space="preserve">
<g>
	<path fill="#63C5E4" d="M92.467,441.043C80.335,453.193-0.396,542.68-0.396,661.338h121.752h14.792h170.594
		c0-118.658,61.9-198.799,92.861-220.294c-45.404-30.771-92.861-101.634-92.861-220.29H136.148h-14.792H-0.396
		C-0.396,339.41,80.335,428.896,92.467,441.043z"/>
	<path fill="#28A9E1" d="M92.467,0.46C80.335,12.609-0.396,102.097-0.396,220.753h121.752h14.792h170.594
		c0-118.656,61.9-198.798,92.862-220.293c-45.404-30.772-92.862-101.635-92.862-220.292H136.149h-14.792H-0.395
		C-0.395-101.175,80.335-11.687,92.467,0.46z"/>
</g>
<path fill="#28A9E1" d="M92.467,881.999C80.335,894.148-0.396,983.637-0.396,1102.293h121.752h14.792h170.594
	c0-118.656,61.9-198.799,92.862-220.294c-45.404-30.772-92.862-101.636-92.862-220.292H136.149h-14.792H-0.395
	C-0.395,780.363,80.335,869.852,92.467,881.999z"/>
</svg>
