<?xml version="1.0" encoding="utf-8"?>
<!-- Generator: Adobe Illustrator 16.0.0, SVG Export Plug-In . SVG Version: 6.00 Build 0)  -->
<!DOCTYPE svg PUBLIC "-//W3C//DTD SVG 1.1//EN" "http://www.w3.org/Graphics/SVG/1.1/DTD/svg11.dtd">
<svg version="1.1" id="Layer_1" xmlns="http://www.w3.org/2000/svg" xmlns:xlink="http://www.w3.org/1999/xlink" x="0px" y="0px"
	 width="1024px" height="768px" viewBox="0 0 1024 768" enable-background="new 0 0 1024 768" xml:space="preserve">
<g>
	<path fill="#F5F5F5" d="M91.866,244.236c7.479-5.922,18.342-4.661,24.264,2.816c5.92,7.477,4.656,18.339-2.823,24.261
		s-18.342,4.662-24.262-2.814C83.123,261.021,84.386,250.158,91.866,244.236z M133.428,233.182
		c-0.493,4.261-2.43,34.311,15.972,57.55l23.851-18.886l2.898-2.294l33.419-26.462c-18.401-23.239-18.704-48.538-15.972-57.55
		c-13.667,1.016-33.953-5.501-52.355-28.741l-33.419,26.461l-2.898,2.295L81.072,204.44
		C99.474,227.681,129.167,232.685,133.428,233.182z"/>
	<path fill="#F5F5F5" d="M322.88,146.611c-2.731-7.888,1.422-16.487,9.278-19.207c7.854-2.72,16.435,1.47,19.167,9.358
		c2.731,7.889-1.422,16.487-9.276,19.207C334.192,158.689,325.611,154.5,322.88,146.611z M325.698,109.11
		c3.367,1.642,27.554,11.946,51.966,3.494l-8.709-25.154l-1.059-3.057l-12.203-35.245c-24.413,8.453-45.329,1.373-51.966-3.493
		c-3.083,11.572-14.268,26.425-38.681,34.878l12.203,35.245l1.058,3.056l8.709,25.154
		C311.43,135.537,324.067,112.483,325.698,109.11z"/>
	<path fill="#F5F5F5" d="M518.636,83.047c5.799-3.26,13.109-1.26,16.33,4.468c3.22,5.728,1.129,13.013-4.67,16.273
		s-13.109,1.26-16.329-4.467C510.746,93.593,512.836,86.308,518.636,83.047z M548.396,79.856
		c-0.818,2.858-5.531,23.177,4.477,40.979l18.492-10.396l2.246-1.263l25.91-14.567c-10.009-17.802-7.366-35.11-4.478-40.979
		c-9.491-0.739-22.676-7.318-32.685-25.12L536.45,43.077l-2.247,1.263l-18.491,10.396C525.721,72.539,545.529,79.07,548.396,79.856z
		"/>
	<path fill="#F5F5F5" d="M642.988,166.044c2.932-2.479,7.235-2.211,9.612,0.599c2.378,2.811,1.929,7.099-1.003,9.578
		c-2.932,2.48-7.235,2.212-9.612-0.598C639.607,172.812,640.057,168.524,642.988,166.044z M659.38,160.84
		c-0.175,1.683-0.801,13.513,6.588,22.248l9.348-7.908l1.136-0.96l13.099-11.08c-7.389-8.735-7.627-18.655-6.588-22.248
		c-5.402,0.684-13.459-1.451-20.848-10.186l-13.099,11.08l-1.136,0.961l-9.348,7.908C645.921,159.39,657.692,160.734,659.38,160.84z
		"/>
	<path fill="#F5F5F5" d="M889.956,129.323c-4.606,0.439-8.686-2.828-9.112-7.298c-0.427-4.47,2.962-8.449,7.567-8.889
		c4.606-0.439,8.687,2.827,9.112,7.297C897.95,124.904,894.562,128.884,889.956,129.323z M870.145,123.11
		c1.328-1.562,10.068-12.968,8.742-26.861l-14.688,1.402l-1.785,0.17l-20.581,1.963c1.326,13.893-5.247,23.988-8.742,26.861
		c5.821,3.08,12.339,10.831,13.664,24.723l20.582-1.964l1.784-0.17l14.688-1.401C882.483,133.941,871.744,124.394,870.145,123.11z"
		/>
	<path fill="#F5F5F5" d="M107.605,459.516c-1.929-4.671,0.201-9.982,4.756-11.863c4.555-1.881,9.811,0.381,11.74,5.053
		c1.929,4.671-0.2,9.982-4.755,11.863C114.791,466.449,109.534,464.188,107.605,459.516z M107.814,436.822
		c2.062,0.887,16.818,6.354,30.977,0.51l-6.15-14.896l-0.747-1.81l-8.617-20.872c-14.158,5.846-26.848,2.221-30.977-0.509
		c-1.378,7.071-7.436,16.368-21.594,22.214l8.617,20.872l0.747,1.81l6.15,14.896C100.378,453.191,106.978,438.906,107.814,436.822z"
		/>
	<path fill="#F5F5F5" d="M303.732,344.702c1.679-9.036,10.355-15.001,19.379-13.325c9.023,1.677,14.977,10.36,13.298,19.396
		c-1.679,9.036-10.354,15.002-19.377,13.326C308.008,362.422,302.053,353.738,303.732,344.702z M326.884,310.354
		c2.337,3.405,19.939,26.44,47.985,31.65l5.353-28.813l0.65-3.501l7.5-40.373c-28.046-5.211-44.266-23.379-47.985-31.651
		c-9.27,9.395-28.106,17.514-56.151,12.304l-7.5,40.373l-0.65,3.501l-5.354,28.813C298.778,327.867,323.479,312.692,326.884,310.354
		z"/>
	<path fill="#F5F5F5" d="M530.873,326.322c-6.028,1.27-11.93-2.513-13.18-8.448s2.624-11.776,8.652-13.046
		c6.029-1.27,11.93,2.512,13.18,8.448S536.901,325.052,530.873,326.322z M503.7,320.91c1.519-2.292,11.335-18.89,7.449-37.338
		l-19.224,4.049l-2.336,0.492l-26.937,5.674c3.886,18.448-3.264,32.966-7.449,37.338c8.177,3.273,17.991,12.712,21.877,31.161
		l26.937-5.673l2.336-0.492l19.224-4.049C521.691,333.622,506.014,322.395,503.7,320.91z"/>
	<path fill="#F5F5F5" d="M678.345,318.541c-0.304-9.034,6.76-16.604,15.778-16.907c9.018-0.303,16.573,6.774,16.877,15.809
		c0.305,9.034-6.759,16.604-15.776,16.907C686.205,334.652,678.648,327.575,678.345,318.541z M693.288,280.641
		c2.966,2.775,24.746,21.166,52.773,20.223l-0.969-28.809l-0.118-3.5l-1.357-40.366c-28.027,0.943-47.45-13.067-52.773-20.223
		c-6.907,10.988-23.269,22.781-51.296,23.724l1.357,40.366l0.118,3.5l0.969,28.809C670.02,303.422,690.516,283.609,693.288,280.641z
		"/>
	<path fill="#F5F5F5" d="M882.377,265.709c7.98-0.197,14.609,6.075,14.806,14.012c0.196,7.936-6.114,14.528-14.096,14.725
		c-7.98,0.197-14.609-6.075-14.806-14.01C868.085,272.5,874.396,265.907,882.377,265.709z M915.729,279.15
		c-2.475,2.587-18.89,21.606-18.279,46.27l25.449-0.629l3.093-0.076l35.659-0.882c-0.61-24.664,11.917-41.642,18.279-46.27
		c-9.649-6.162-19.934-20.646-20.544-45.31l-35.659,0.882l-3.093,0.076l-25.449,0.629
		C895.794,258.503,913.129,276.687,915.729,279.15z"/>
	<path fill="#F5F5F5" d="M301.436,521.273c-4.218-4.732-3.855-11.938,0.811-16.097c4.665-4.158,11.865-3.692,16.083,1.04
		c4.217,4.732,3.856,11.939-0.809,16.097C312.854,526.472,305.653,526.005,301.436,521.273z M292.377,494.237
		c2.825,0.181,22.677,0.441,37.176-12.48l-13.45-15.091l-1.634-1.833l-18.845-21.144c-14.499,12.922-31.129,13.977-37.175,12.48
		c1.255,8.979-2.161,22.578-16.659,35.5l18.845,21.145l1.634,1.833l13.45,15.091C290.217,516.816,292.233,497.063,292.377,494.237z"
		/>
	<path fill="#F5F5F5" d="M477.933,452.209c-1.339-2.866-0.231-6.214,2.474-7.478c2.705-1.265,5.983,0.034,7.323,2.9
		c1.339,2.865,0.231,6.214-2.474,7.478C482.551,456.373,479.272,455.074,477.933,452.209z M477.257,438.089
		c1.286,0.508,10.459,3.605,18.868-0.323l-4.27-9.14l-0.519-1.109l-5.983-12.806c-8.409,3.929-16.259,1.937-18.868,0.324
		c-0.588,4.427-3.945,10.335-12.354,14.264l5.982,12.805l0.519,1.11l4.27,9.139C473.312,448.424,476.821,439.401,477.257,438.089z"
		/>
	<path fill="#F5F5F5" d="M659.7,553.865c3.343-8.729,13.121-13.098,21.843-9.758s13.081,13.121,9.738,21.851
		c-3.342,8.728-13.121,13.098-21.842,9.759C660.718,572.377,656.357,562.593,659.7,553.865z M689.188,523.774
		c1.713,3.836,15.087,30.12,42.191,40.499l10.659-27.835l1.295-3.381l14.934-39c-27.104-10.38-39.993-31.541-42.192-40.499
		c-11.004,7.688-31.347,12.339-58.452,1.96l-14.934,39l-1.295,3.382l-10.658,27.834C657.84,536.113,685.351,525.485,689.188,523.774
		z"/>
	<path fill="#F5F5F5" d="M850.217,496.553c-0.067-6.374,4.973-11.594,11.258-11.66c6.284-0.065,11.432,5.047,11.499,11.421
		c0.066,6.373-4.973,11.595-11.257,11.66C855.432,508.04,850.283,502.926,850.217,496.553z M861.23,470.081
		c2.021,2.004,16.892,15.327,36.424,15.122l-0.214-20.325l-0.025-2.469l-0.299-28.478c-19.531,0.204-32.831-9.99-36.424-15.122
		c-4.986,7.633-16.568,15.678-36.1,15.882l0.299,28.479l0.025,2.469l0.214,20.325C844.662,485.759,859.251,472.127,861.23,470.081z"
		/>
	<path fill="#F5F5F5" d="M138.255,640.097c-6.445-0.499-11.269-6.057-10.777-12.414s6.114-11.106,12.558-10.607
		c6.443,0.498,11.269,6.056,10.777,12.412C150.321,635.845,144.698,640.595,138.255,640.097z M112.496,626.614
		c2.204-1.864,16.981-15.712,18.51-35.47l-20.549-1.59l-2.496-0.193l-28.792-2.227c-1.528,19.758-13.007,32.295-18.51,35.47
		c7.266,5.717,14.363,18.136,12.834,37.895l28.792,2.228l2.497,0.193l20.548,1.589C126.859,644.751,114.387,628.796,112.496,626.614
		z"/>
	<path fill="#F5F5F5" d="M364.461,635.249c2.929,0.265,5.103,2.705,4.854,5.452c-0.248,2.746-2.823,4.759-5.752,4.494
		c-2.928-0.265-5.102-2.705-4.854-5.451C358.957,636.997,361.532,634.984,364.461,635.249z M376.126,641.276
		c-1.01,0.79-7.784,6.669-8.554,15.205l9.34,0.843l1.135,0.103l13.086,1.182c0.771-8.536,6.04-13.873,8.554-15.205
		c-3.283-2.528-6.463-7.955-5.693-16.491l-13.087-1.182l-1.134-0.103l-9.34-0.843C369.662,633.321,375.274,640.318,376.126,641.276z
		"/>
	<path fill="#F5F5F5" d="M479.551,694.484c2.374-8.273,10.982-13.062,19.228-10.695c8.245,2.365,13.004,10.988,10.63,19.263
		c-2.373,8.271-10.981,13.061-19.226,10.694C481.938,711.381,477.178,702.756,479.551,694.484z M504.178,664.529
		c1.869,3.382,16.178,26.419,41.805,33.771l7.568-26.38l0.92-3.205l10.605-36.963c-25.627-7.354-39.087-25.73-41.804-33.771
		c-9.468,7.931-27.723,13.822-53.351,6.469l-10.605,36.963l-0.919,3.205l-7.569,26.381
		C476.455,678.352,500.8,666.405,504.178,664.529z"/>
	<path fill="#F5F5F5" d="M696.438,658.376c0.805-2.73,3.525-4.333,6.077-3.581c2.552,0.753,3.968,3.575,3.163,6.305
		s-3.525,4.333-6.077,3.581C697.05,663.928,695.634,661.105,696.438,658.376z M704.35,648.44c0.557,1.106,4.836,8.642,12.767,10.98
		l2.566-8.705l0.312-1.058l3.596-12.197c-7.931-2.338-11.981-8.342-12.766-10.979c-3.014,2.64-8.751,4.637-16.681,2.298
		l-3.597,12.197l-0.312,1.058l-2.566,8.705C695.6,653.077,703.282,649.068,704.35,648.44z"/>
	<path fill="#F5F5F5" d="M886.202,641.204c-4.813-0.951-7.965-5.521-7.039-10.207c0.925-4.687,5.577-7.715,10.391-6.764
		c4.812,0.95,7.965,5.52,7.04,10.206C895.668,639.126,891.015,642.154,886.202,641.204z M867.963,628.854
		c1.824-1.189,14.171-10.164,17.048-24.729l-15.35-3.031l-1.864-0.369l-21.507-4.247c-2.876,14.565-12.623,22.861-17.048,24.729
		c4.979,4.907,9.243,14.788,6.366,29.354l21.507,4.248l1.864,0.368l15.35,3.031C877.206,643.643,869.198,630.647,867.963,628.854z"
		/>
</g>
<g opacity="0.4">
	<path fill="#F5F5F5" d="M283.085,32.996c9.508,0.786,16.578,9.128,15.793,18.634c-0.786,9.505-9.13,16.572-18.638,15.787
		s-16.579-9.127-15.793-18.632C265.233,39.279,273.577,32.21,283.085,32.996z M320.986,53.321
		c-3.271,2.775-25.216,23.394-27.658,52.936l30.319,2.505l3.684,0.305l42.482,3.511c2.441-29.542,19.505-48.222,27.657-52.936
		c-10.673-8.596-21.034-27.215-18.593-56.758l-42.482-3.511l-3.684-0.304l-30.319-2.506
		C299.952,26.106,318.214,50.047,320.986,53.321z"/>
	<path fill="#F5F5F5" d="M518.472,119.547c3.395-7.625,12.303-11.067,19.897-7.686c7.593,3.38,10.996,12.303,7.602,19.929
		c-3.396,7.626-12.303,11.067-19.896,7.687C518.479,136.096,515.076,127.173,518.472,119.547z M546.151,94.089
		c1.337,3.5,11.958,27.549,35.559,38.056l10.827-24.317l1.315-2.956l15.17-34.073c-23.602-10.507-34.037-29.968-35.559-38.055
		c-10.158,6.343-28.474,9.547-52.075-0.96l-15.17,34.074l-1.315,2.954L494.077,93.13C517.678,103.638,542.657,95.438,546.151,94.089
		z"/>
	<path fill="#F5F5F5" d="M704.842,206.879c6.462,1.582,10.434,8.037,8.872,14.42c-1.562,6.382-8.066,10.273-14.528,8.692
		c-6.461-1.582-10.434-8.037-8.871-14.418C691.876,209.189,698.379,205.297,704.842,206.879z M728.754,224.883
		c-2.551,1.528-19.875,13.145-24.729,32.981l20.606,5.043l2.502,0.612l28.873,7.066c4.854-19.837,18.609-30.67,24.729-32.982
		c-6.426-7.024-11.559-20.836-6.704-40.674l-28.871-7.065l-2.504-0.613l-20.605-5.042
		C717.195,204.046,727.197,222.35,728.754,224.883z"/>
	<path fill="#F5F5F5" d="M738.938,352.446c3.835,0.192,6.795,3.329,6.609,7.005c-0.184,3.677-3.441,6.501-7.275,6.309
		c-3.836-0.192-6.795-3.328-6.61-7.004C731.846,355.078,735.104,352.253,738.938,352.446z M754.463,359.845
		c-1.277,1.109-9.817,9.32-10.391,20.747l12.229,0.613l1.486,0.074l17.135,0.859c0.572-11.426,7.176-18.833,10.39-20.747
		c-4.412-3.192-8.837-10.255-8.265-21.682l-17.134-0.859l-1.486-0.074l-12.228-0.612
		C745.626,349.59,753.303,358.615,754.463,359.845z"/>
	<path fill="#F5F5F5" d="M944.363,494.369c-3.664-2.828-4.41-8-1.668-11.557c2.743-3.555,7.937-4.145,11.6-1.318
		s4.41,7.998,1.667,11.553C953.22,496.604,948.026,497.195,944.363,494.369z M934.142,476.295
		c2.037-0.232,16.212-2.59,24.735-13.641l-11.683-9.012l-1.42-1.094l-16.37-12.629c-8.523,11.051-20.221,13.932-24.735,13.641
		c2.146,6.227,1.609,16.34-6.914,27.389l16.37,12.629l1.42,1.094l11.683,9.012C935.752,492.635,934.433,478.326,934.142,476.295z"/>
	<path fill="#F5F5F5" d="M147.492,200.947c1.782-4.728,6.967-7.152,11.579-5.413c4.611,1.739,6.904,6.981,5.12,11.711
		c-1.784,4.729-6.966,7.152-11.578,5.413C148.001,210.919,145.708,205.676,147.492,200.947z M163.149,184.52
		c0.9,2.057,7.939,16.131,22.271,21.537l5.687-15.08l0.691-1.832l7.968-21.128c-14.333-5.405-21.122-16.722-22.271-21.536
		c-5.838,4.222-16.613,6.871-30.946,1.466l-7.968,21.129l-0.69,1.831l-5.687,15.08C146.536,191.392,161.115,185.47,163.149,184.52z"
		/>
	<path fill="#F5F5F5" d="M369.148,251.111c7.399-5.451,17.811-3.879,23.255,3.51c5.443,7.39,3.857,17.798-3.542,23.249
		c-7.4,5.451-17.81,3.881-23.254-3.508C360.164,266.971,361.749,256.562,369.148,251.111z M409.522,241.848
		c-0.62,4.083-3.505,32.93,13.414,55.896l23.595-17.382l2.867-2.112l33.061-24.355c-16.919-22.967-16.35-47.315-13.414-55.896
		c-13.188,0.527-32.489-6.414-49.408-29.38l-33.061,24.356l-2.867,2.112l-23.596,17.382
		C377.033,235.433,405.438,241.229,409.522,241.848z"/>
	<path fill="#F5F5F5" d="M547.564,392.88c-5.27-3.192-6.995-9.985-3.853-15.174c3.143-5.188,9.963-6.806,15.232-3.614
		c5.27,3.192,6.994,9.985,3.852,15.174C559.653,394.453,552.834,396.071,547.564,392.88z M531.421,370.362
		c2.675-0.637,21.183-6.049,30.949-22.175l-16.803-10.178l-2.042-1.236l-23.546-14.262c-9.768,16.125-24.907,21.842-30.951,22.175
		c3.735,7.977,4.452,21.575-5.315,37.7l23.546,14.262l2.042,1.236l16.804,10.178C535.872,391.938,532.096,373.027,531.421,370.362z"
		/>
	<path fill="#F5F5F5" d="M660.564,487.955c5.951-6.805,16.281-7.506,23.073-1.564c6.792,5.939,7.474,16.27,1.522,23.074
		c-5.949,6.805-16.279,7.506-23.071,1.566S654.614,494.76,660.564,487.955z M697.371,470.49c0.27,4.053,3.607,32.363,24.718,50.824
		l18.976-21.697l2.305-2.637l26.589-30.404c-21.11-18.461-25.72-41.961-24.718-50.822c-12.552,3.305-32.557,0.736-53.666-17.725
		l-26.588,30.404l-2.305,2.637l-18.977,21.697C664.814,471.229,693.318,470.764,697.371,470.49z"/>
	<path fill="#F5F5F5" d="M845.645,588.779c5.963,5.309,6.518,14.418,1.239,20.348c-5.28,5.928-14.392,6.43-20.354,1.121
		s-6.518-14.416-1.239-20.346C830.57,583.973,839.684,583.471,845.645,588.779z M860.815,621.381
		c-3.574,0.199-28.554,2.871-44.96,21.297l19.013,16.928l2.312,2.059l26.64,23.719c16.406-18.426,37.153-22.264,44.961-21.297
		c-2.836-11.092-0.449-28.695,15.957-47.121l-26.642-23.721l-2.31-2.057l-19.014-16.928
		C860.366,592.686,860.6,617.807,860.815,621.381z"/>
	<path fill="#F5F5F5" d="M246.832,378.474c0.154-6.337,5.341-11.351,11.589-11.199c6.247,0.151,11.188,5.41,11.034,11.747
		c-0.154,6.337-5.342,11.353-11.589,11.201C251.618,390.072,246.679,384.811,246.832,378.474z M258.689,352.543
		c1.94,2.062,16.257,15.816,35.673,16.287l0.49-20.209l0.059-2.454l0.686-28.315c-19.416-0.471-32.28-11.063-35.673-16.286
		c-5.218,7.414-17.003,15.01-36.419,14.54l-0.686,28.315l-0.06,2.455l-0.488,20.208
		C241.686,367.554,256.653,354.509,258.689,352.543z"/>
	<path fill="#F5F5F5" d="M422.898,448.633c0.979-3.008,4.075-4.695,6.915-3.77c2.84,0.924,4.346,4.111,3.366,7.121
		c-0.981,3.006-4.077,4.693-6.916,3.77C423.425,454.828,421.917,451.639,422.898,448.633z M432.051,437.859
		c0.592,1.25,5.173,9.779,13.998,12.656l3.126-9.592l0.379-1.164l4.381-13.439c-8.825-2.875-13.196-9.693-13.999-12.654
		c-3.454,2.832-9.942,4.852-18.767,1.975l-4.38,13.438l-0.38,1.166l-3.126,9.59C422.109,442.711,430.836,438.521,432.051,437.859z"
		/>
	<path fill="#F5F5F5" d="M486.169,647.051c8.405-4.09,18.53-0.6,22.617,7.799c4.086,8.398,0.587,18.518-7.818,22.609
		c-8.403,4.09-18.53,0.6-22.616-7.797C474.265,661.264,477.765,651.141,486.169,647.051z M528.26,645.227
		c-1.37,3.971-9.562,32.301,3.139,58.398l26.8-13.043l3.256-1.584l37.551-18.273c-12.699-26.1-7.653-50.357-3.139-58.4
		c-13.287-1.906-31.32-12.406-44.021-38.506l-37.551,18.275l-3.255,1.584l-26.8,13.043
		C496.94,632.818,524.289,643.854,528.26,645.227z"/>
	<path fill="#F5F5F5" d="M664.443,735.369c4.305-4.701,11.552-5.068,16.186-0.824c4.634,4.248,4.9,11.496,0.594,16.197
		c-4.306,4.699-11.552,5.068-16.187,0.824C660.401,747.32,660.137,740.068,664.443,735.369z M690.57,723.564
		c0.107,2.844,1.863,22.732,16.266,35.928l13.73-14.986l1.668-1.82l19.239-21c-14.401-13.195-17.148-29.727-16.265-35.928
		c-8.856,2.166-22.811,0.129-37.211-13.066l-19.24,20.998l-1.668,1.82l-13.73,14.988
		C667.761,723.691,687.729,723.705,690.57,723.564z"/>
	<path fill="#F5F5F5" d="M46.493,353.75c-4.364-4.769-4.09-12.122,0.612-16.428s12.053-3.934,16.417,0.834
		c4.364,4.766,4.092,12.12-0.611,16.426C58.209,358.889,50.857,358.515,46.493,353.75z M36.895,326.305
		c2.884,0.144,23.136,0.129,37.751-13.254L60.728,297.85l-1.69-1.847l-19.503-21.297c-14.615,13.383-31.563,14.695-37.75,13.254
		c1.399,9.139-1.902,23.055-16.519,36.439l19.502,21.297l1.691,1.847l13.918,15.2C34.992,349.362,36.786,329.19,36.895,326.305z"/>
	<path fill="#F5F5F5" d="M214.981,504.762c1.958,2.193,1.877,5.461-0.18,7.297c-2.058,1.836-5.313,1.547-7.271-0.648
		c-1.958-2.193-1.877-5.461,0.18-7.297C209.768,502.277,213.024,502.566,214.981,504.762z M219.381,517.133
		c-1.277-0.113-10.24-0.449-16.635,5.258l6.245,6.996l0.758,0.852l8.749,9.803c6.395-5.707,13.888-6.004,16.635-5.258
		c-0.669-4.09,0.715-10.225,7.111-15.932l-8.749-9.805l-0.759-0.85l-6.244-6.998C220.096,506.906,219.414,515.85,219.381,517.133z"
		/>
	<path fill="#F5F5F5" d="M258.549,626.646c7.387-4.418,16.943-2.033,21.348,5.328c4.404,7.359,1.988,16.908-5.4,21.33
		c-7.383,4.416-16.942,2.033-21.345-5.328C248.747,640.615,251.165,631.066,258.549,626.646z M296.998,621.6
		c-0.946,3.748-6.238,30.346,7.452,53.223l23.549-14.092l2.861-1.711l32.999-19.744c-13.688-22.879-10.961-45.494-7.451-53.223
		c-12.332-0.678-29.688-8.848-43.376-31.727l-32.998,19.744l-2.861,1.713l-23.552,14.092
		C267.311,612.752,293.25,620.664,296.998,621.6z"/>
	<path fill="#F5F5F5" d="M441.59,748.467c2.453-1.445,5.535-0.756,6.885,1.535c1.348,2.295,0.454,5.322-1.998,6.766
		c-2.453,1.443-5.535,0.756-6.885-1.537C438.244,752.938,439.138,749.908,441.59,748.467z M454.155,746.617
		c-0.349,1.188-2.373,9.613,1.82,16.74l7.822-4.604l0.951-0.561l10.959-6.449c-4.194-7.125-3.049-14.277-1.821-16.738
		c-4.003-0.133-9.558-2.594-13.75-9.719l-10.959,6.447l-0.951,0.561l-7.821,4.604C444.598,744.023,452.947,746.346,454.155,746.617z
		"/>
	<path fill="#F5F5F5" d="M591.889,865.58c-2.866-3.984-2.044-9.473,1.833-12.262c3.878-2.791,9.344-1.824,12.209,2.16
		c2.865,3.98,2.045,9.473-1.832,12.262C600.22,870.529,594.754,869.562,591.889,865.58z M587.007,844.1
		c2.145,0.379,17.293,2.262,29.347-6.408l-9.138-12.701l-1.109-1.545l-12.804-17.793c-12.051,8.67-24.837,8.068-29.344,6.408
		c0.282,6.986-3.354,17.115-15.406,25.783l12.802,17.797l1.109,1.543l9.137,12.701C583.654,861.215,586.685,846.254,587.007,844.1z"
		/>
</g>
</svg>
