<?xml version="1.0" encoding="utf-8"?>
<!-- Generator: Adobe Illustrator 16.0.0, SVG Export Plug-In . SVG Version: 6.00 Build 0)  -->
<!DOCTYPE svg PUBLIC "-//W3C//DTD SVG 1.1//EN" "http://www.w3.org/Graphics/SVG/1.1/DTD/svg11.dtd">
<svg version="1.1" id="Layer_1" xmlns="http://www.w3.org/2000/svg" xmlns:xlink="http://www.w3.org/1999/xlink" x="0px" y="0px"
	 width="107px" height="130px" viewBox="0 0 107 130" enable-background="new 0 0 107 130" xml:space="preserve">
<path fill="#28A9E1" d="M70.118,17.333c0,9.251-7.499,16.75-16.75,16.75c-9.25,0-16.748-7.499-16.748-16.75
	s7.498-16.75,16.748-16.75C62.619,0.583,70.118,8.082,70.118,17.333z M53.5,55.583c-2.943-2.94-24.626-22.5-53.376-22.5v29.5v3.584
	V107.5c28.75,0,48.168,14.998,53.376,22.5c7.456-11.001,24.626-22.5,53.376-22.5V66.166v-3.584v-29.5
	C78.126,33.082,56.443,52.642,53.5,55.583z"/>
</svg>
