<?xml version="1.0" standalone="no"?> 
<!DOCTYPE svg PUBLIC "-//W3C//DTD SVG 1.1//EN" "http://www.w3.org/Graphics/SVG/1.1/DTD/svg11.dtd" >
<svg xmlns="http://www.w3.org/2000/svg">
<defs>
  <font id="dl-icon" horiz-adv-x="60.15">
    <font-face font-family="dl-icon"
      units-per-em="512" ascent="448"
      descent="64" />
    <missing-glyph horiz-adv-x="0" />
    <glyph glyph-name="0-Circular-Filled"
      unicode="&#xF101;"
      horiz-adv-x="512" d=" M255.80373333333333 271.1637333333333C242.0992 271.1637333333333 232.40533333333332 265.30133333333333 226.1248 253.24373333333332C219.61386666666664 240.7168 216.32853333333333 220.1344 216.32853333333333 192.05973333333333S219.62239999999997 143.35999999999996 226.11626666666663 130.74773333333331C232.3712 118.59626666666662 242.07359999999997 112.69119999999998 255.7781333333333 112.69119999999998C269.6448 112.69119999999998 279.41546666666665 118.68159999999995 285.62773333333325 130.9952C292.1130666666666 143.79520000000002 295.38133333333326 164.3605333333333 295.38133333333326 192.07680000000002S292.1045333333333 240.29013333333333 285.6533333333333 253.00480000000002C279.424 265.2416 269.6533333333333 271.1808 255.7866666666666 271.1808z M256 448C114.6368 448 0 333.39733333333334 0 192S114.6368 -64 256 -64C397.39733333333334 -64 512 50.602666666666664 512 192S397.39733333333334 448 256 448zM307.5072 114.21013333333332C296.2432 96.60586666666666 278.86080000000004 87.67146666666667 255.79520000000002 87.67146666666667C233.63413333333335 87.67146666666667 216.5418666666667 96.80213333333336 204.9792 114.8074666666667C193.68106666666665 132.4202666666667 187.9466666666667 158.4128 187.9466666666667 192.07680000000002C187.9466666666667 226.80746666666667 193.49333333333334 253.03893333333332 204.45866666666666 270.07146666666665C215.6544 287.50506666666666 232.9344 296.33706666666666 255.82933333333332 296.33706666666666C278.144 296.33706666666666 295.36426666666665 287.12106666666665 306.97813333333335 268.9792C318.3274666666667 251.22986666666668 324.07893333333334 225.3738666666667 324.07893333333334 192.0512C324.07893333333334 157.57653333333337 318.50666666666666 131.37920000000003 307.5242666666667 114.17600000000004z" />
    <glyph glyph-name="0-CircularLines-Filled"
      unicode="&#xF102;"
      horiz-adv-x="512" d=" M255.80373333333333 293.4613333333333C233.87306666666666 293.4613333333333 217.55733333333333 285.14986666666664 206.85653333333332 268.5184C196.18986666666666 251.8784 190.83946666666668 226.39786666666666 190.83946666666668 192.05973333333333C190.83946666666668 158.80533333333335 196.352 133.57226666666668 207.41973333333334 116.35199999999998C218.47040000000004 99.1488 234.60693333333336 90.53866666666664 255.82080000000002 90.53866666666664C277.9392 90.53866666666664 294.3573333333334 98.93546666666668 305.10080000000005 115.75466666666665C315.8357333333334 132.56533333333329 321.22880000000004 157.99466666666666 321.22880000000004 192.06826666666663C321.22880000000004 224.96426666666665 315.6821333333334 250.0949333333333 304.5717333333334 267.43466666666666C293.4613333333334 284.7829333333333 277.22240000000005 293.4613333333333 255.82933333333338 293.4613333333333zM288.2560000000001 129.70666666666665C281.5573333333334 116.44586666666663 270.73706666666675 109.82399999999996 255.82933333333338 109.82399999999996C241.08373333333338 109.82399999999996 230.34026666666674 116.35199999999998 223.60746666666674 129.4336C216.8661333333334 142.5152 213.50400000000005 163.39626666666663 213.50400000000005 192.06826666666666S216.8746666666667 241.5616 223.62453333333337 254.56640000000002C230.3658666666667 267.53706666666665 241.1178666666667 274.048 255.84640000000005 274.048C270.76266666666675 274.048 281.58293333333336 267.4517333333333 288.2730666666667 254.28480000000002C294.96320000000003 241.10080000000005 298.3168 220.36480000000003 298.3168 192.05120000000002S294.9717333333333 142.9504 288.2816 129.67253333333338z M256 448C114.6368 448 0 333.38026666666667 0 192C0 50.602666666666664 114.6368 -64 256 -64C397.39733333333334 -64 512 50.602666666666664 512 192C512 333.38026666666667 397.39733333333334 448 256 448zM256 -40.98559999999998C127.53066666666666 -40.98559999999998 23.014400000000002 63.53066666666666 23.014400000000002 192S127.53066666666666 424.9856 256 424.9856S488.9856 320.46933333333334 488.9856 192S384.46933333333334 -40.98559999999998 256 -40.98559999999998z" />
    <glyph glyph-name="0-Lines-Filled"
      unicode="&#xF103;"
      horiz-adv-x="512" d=" M378.4533333333333 382.3502222222222C350.4924444444444 426.1546666666667 309.47555555555556 448 255.53066666666663 448C200.17777777777775 448 159.01866666666663 427.008 132.02488888888888 385.08088888888886S91.54844444444443 278.8408888888889 91.54844444444443 192.22755555555554C91.54844444444443 108.28799999999995 105.48622222222221 44.64355555555551 133.40444444444444 1.223111111111109C161.28 -42.26844444444441 201.95555555555552 -64 255.5022222222222 -64C311.2817777777778 -64 352.72533333333337 -42.766222222222154 379.8471111111111 -0.36977777777769916C406.94044444444444 42.012444444444554 420.4373333333333 106.2115555555556 420.4373333333333 192.19911111111116C420.4373333333333 275.21422222222225 406.4426666666666 338.57422222222226 378.43911111111106 382.35022222222227zM337.32266666666663 34.844444444444434C320.4266666666667 1.422222222222274 293.16266666666667 -15.317333333333295 255.54488888888886 -15.317333333333295C218.33955555555553 -15.317333333333295 191.232 1.180444444444447 174.2222222222222 34.176000000000045C157.15555555555557 67.17155555555559 148.65066666666667 119.82222222222231 148.65066666666667 192.18488888888893C148.65066666666667 264.51911111111116 157.184 317.08444444444444 174.208 349.824C191.18933333333334 382.60622222222224 218.26844444444444 399.00444444444446 255.48799999999997 399.00444444444446C293.10577777777775 399.00444444444446 320.38399999999996 382.39288888888893 337.2657777777777 349.1697777777778C354.1902222222222 315.9751111111111 362.62399999999997 263.63733333333334 362.62399999999997 192.21333333333337C362.62399999999997 120.74666666666673 354.20444444444445 68.33777777777777 337.2657777777777 34.85866666666669H337.2942222222222z" />
    <glyph glyph-name="0-Square-Filled"
      unicode="&#xF104;"
      horiz-adv-x="512" d=" M255.80373333333333 274.85866666666664C241.05813333333333 274.85866666666664 230.32319999999999 268.34773333333334 223.58186666666666 255.36C216.84053333333335 242.3722666666667 213.48693333333333 221.53386666666668 213.48693333333333 192.86186666666666S216.8576 143.32586666666668 223.59893333333332 130.22719999999998C230.34026666666665 117.17119999999994 241.09226666666666 110.62613333333331 255.82933333333332 110.62613333333331C270.7370666666667 110.62613333333331 281.5573333333333 117.25653333333332 288.25600000000003 130.50879999999995C294.9461333333333 143.7781333333333 298.29973333333334 164.5568 298.29973333333334 192.88746666666663S294.9461333333333 241.93706666666665 288.25600000000003 255.09546666666662C281.54879999999997 268.2709333333333 270.7370666666667 274.86719999999997 255.82933333333332 274.86719999999997z M0 448V-64H512V448H0zM305.0837333333333 116.54826666666668C294.3317333333334 99.73760000000004 277.91360000000003 91.33226666666667 255.80373333333335 91.33226666666667C234.5898666666667 91.33226666666667 218.45333333333338 99.95093333333335 207.4026666666667 117.15413333333333S190.82240000000002 159.5904 190.82240000000002 192.84479999999996C190.82240000000002 227.18293333333332 196.1728 252.66346666666664 206.86506666666668 269.3034666666666C217.5658666666667 285.91786666666667 233.88160000000002 294.2208 255.8122666666667 294.2208C277.20533333333333 294.2208 293.4442666666667 285.55946666666665 304.55466666666666 268.1941333333333C315.64799999999997 250.87146666666663 321.19466666666665 225.73226666666667 321.19466666666665 192.84479999999996C321.19466666666665 158.79679999999996 315.8186666666667 133.34186666666665 305.0837333333333 116.53120000000001z" />
    <glyph glyph-name="1-Circular-Filled"
      unicode="&#xF105;"
      horiz-adv-x="512" d=" M256 448C114.62826666666666 448 0 333.39733333333334 0 192S114.62826666666666 -64 256 -64C397.38026666666667 -64 512 50.602666666666664 512 192S397.38026666666667 448 256 448zM281.6 290.56V89.60000000000002H256V233.93280000000001C256 242.96106666666668 255.87199999999999 251.69920000000002 256.2986666666667 260.0192C255.93173333333334 259.7034666666667 255.39413333333331 259.3706666666667 255.0186666666667 259.0378666666667C252.62933333333334 256.9216 242.00533333333337 248.28586666666666 222.73706666666666 232.66986666666668L220.39893333333333 230.80960000000002L218.5813333333333 233.13920000000002L206.71999999999997 248.49920000000003L204.92799999999997 250.7776L207.23199999999997 252.544L259.39626666666663 293.33333333333337L260.1642666666666 294.40853333333337H281.6V290.5685333333334z" />
    <glyph glyph-name="1-CircularLines-Filled"
      unicode="&#xF106;"
      horiz-adv-x="512" d=" M208.96426666666665 252.16L220.8256 235.8272C239.89759999999998 251.2981333333333 250.58133333333333 259.58399999999995 252.9365333333333 261.64906666666667C255.28319999999997 263.71413333333334 256.29866666666663 265.4549333333333 258.19306666666665 267.3408C257.4762666666667 256.8874666666667 256.01706666666666 245.59786666666665 256.01706666666666 233.91573333333332V89.60000000000002H281.61706666666663V294.4H261.1797333333333L208.98986666666664 252.16z M256 448C114.61973333333333 448 0 333.38026666666667 0 192C0 50.602666666666664 114.61973333333333 -64 256 -64S512 50.602666666666664 512 192C512 333.38026666666667 397.38026666666667 448 256 448zM256 -40.98559999999998C127.53066666666666 -40.98559999999998 23.014400000000002 63.53066666666666 23.014400000000002 192S127.53066666666666 424.9856 256 424.9856C384.4864 424.9856 489.00266666666664 320.46933333333334 489.00266666666664 192S384.4864 -40.98559999999998 256 -40.98559999999998z" />
    <glyph glyph-name="1-Lines-Filled"
      unicode="&#xF107;"
      horiz-adv-x="512" d=" M298.1973333333333 448L162.65955555555553 343.32444444444445L193.47911111111108 303.36C242.97244444444442 343.52355555555556 270.77688888888883 366.2791111111111 276.8213333333333 371.6693333333333C282.9084444444444 377.00266666666664 285.3546666666667 382.1511111111111 290.2613333333333 387.072C288.36977777777776 359.9928888888889 284.4302222222222 331.2782222222222 284.4302222222222 300.928V-64H341.31911111111106V448H298.1688888888889z" />
    <glyph glyph-name="1-Square-Filled"
      unicode="&#xF108;"
      horiz-adv-x="512" d=" M0 448V-64H512V448H0zM281.6 98.13333333333333H256V234.73493333333332C256 246.4256 257.4506666666667 257.4848 258.16746666666666 267.904C256.27306666666664 266.02666666666664 254.71146666666667 264.0384 252.3648 261.97333333333336C250.0352 259.9082666666667 239.616 251.136 220.56106666666668 235.69066666666666L208.82773333333333 252.56959999999998L261.13706666666667 294.4H281.6V98.13333333333333z" />
    <glyph glyph-name="2-Circular-Filled"
      unicode="&#xF109;"
      horiz-adv-x="512" d=" M256 448C114.62826666666666 448 0 333.39733333333334 0 192S114.62826666666666 -64 256 -64C397.38026666666667 -64 512 50.602666666666664 512 192S397.38026666666667 448 256 448zM324.26666666666665 112.79360000000003V89.60000000000002H187.73333333333332V112.50346666666667L188.86826666666667 113.35680000000002L240.92159999999998 165.51253333333335C256.5717333333333 181.3418666666667 267.0848 192.7594666666667 272.0170666666666 199.4496C276.88106666666664 206.03733333333332 280.60159999999996 212.53973333333334 283.0250666666666 218.73493333333337C285.38026666666667 224.84480000000005 286.60906666666665 231.53493333333336 286.60906666666665 238.592C286.60906666666665 248.38826666666668 283.7930666666666 255.88906666666668 277.9221333333333 261.5466666666667C272.11946666666665 267.1274666666667 263.8421333333333 269.9605333333334 253.3461333333333 269.9605333333334C245.54666666666662 269.9605333333334 238.07146666666665 268.65493333333336 231.0741333333333 266.09493333333336C224.07679999999996 263.50933333333336 216.12373333333332 258.71360000000004 207.41119999999998 251.84426666666673L205.14133333333334 250.03520000000006L203.3493333333333 252.33920000000003L191.48799999999997 267.5882666666667L189.78133333333332 269.78133333333335L191.91466666666665 271.5733333333334C210.5173333333333 287.0357333333334 231.10826666666665 294.86933333333343 253.09866666666665 294.86933333333343C272.256 294.86933333333343 287.57333333333327 289.83466666666675 298.5813333333333 279.9104000000001C309.6746666666666 269.9093333333334 315.3066666666666 256.3328000000001 315.3066666666666 239.54773333333338C315.3066666666666 226.61120000000005 311.6373333333333 213.6661333333334 304.4010666666666 201.06240000000005C297.2842666666666 188.64640000000009 283.87839999999994 172.59520000000003 264.55039999999997 153.8133333333334L225.3312 115.19999999999999H324.26666666666665V112.79360000000003z" />
    <glyph glyph-name="2-CircularLines-Filled"
      unicode="&#xF10A;"
      horiz-adv-x="512" d=" M221.86666666666667 113.86880000000002L263.76533333333333 156.06613333333337C283.008 174.75413333333336 295.50933333333336 190.1994666666667 302.50666666666666 202.43626666666668C309.5296 214.656 312.72106666666673 227.01226666666668 312.72106666666673 239.52213333333336C312.72106666666673 255.5306666666667 307.3194666666667 268.2624 296.80640000000005 277.7514666666667S271.69280000000003 291.968 253.1754666666667 291.968C231.75680000000006 291.968 211.9594666666667 284.41600000000005 193.7834666666667 269.3205333333334L205.64480000000003 254.08853333333337C214.6218666666667 261.18826666666666 222.79680000000002 266.0864 230.09280000000004 268.7914666666667C237.4314666666667 271.488 245.17120000000003 272.8448 253.3546666666667 272.8448C264.6784 272.8448 273.5445333333334 269.7728000000001 279.9274666666667 263.61173333333335C286.29333333333335 257.44213333333335 289.4848 249.1050666666667 289.4848 238.59200000000004C289.4848 231.14240000000004 288.23040000000003 224.1706666666667 285.71306666666663 217.71093333333337S279.43253333333337 204.59520000000006 274.39786666666663 197.76000000000005S257.19466666666665 179.49866666666668 241.37386666666666 163.5072L187.73333333333332 111.30879999999996V89.60000000000002H324.26666666666665V115.19999999999999H221.86666666666667V113.86880000000002z M256 448C114.61973333333333 448 0 333.38026666666667 0 192C0 50.602666666666664 114.61973333333333 -64 256 -64S512 50.602666666666664 512 192C512 333.38026666666667 397.38026666666667 448 256 448zM256 -40.98559999999998C127.5136 -40.98559999999998 22.99733333333333 63.53066666666666 22.99733333333333 192S127.5136 424.9856 256 424.9856C384.46933333333334 424.9856 488.9856 320.46933333333334 488.9856 192S384.46933333333334 -40.98559999999998 256 -40.98559999999998z" />
    <glyph glyph-name="2-Lines-Filled"
      unicode="&#xF10B;"
      horiz-adv-x="508.35677643554527" d=" M169.45225881184842 -7.515913729383897V-7.699487009763345L278.79132881019365 101.13122621214632C328.39847757736226 149.3545148656848 361.2580947652932 189.20403772960452 379.33300237189036 220.73627889017595C397.40790997848757 252.25439902917975 405.97937007005356 284.13966572894253 405.97937007005356 316.33559490319374C405.97937007005356 357.6113409454465 392.18313199845556 390.47095813337745 365.08489161012744 414.90032544541896C337.97253020023174 439.37205582216336 300.41061283027193 451.6149815213194 252.63919686689837 451.6149815213194C197.510728666777 451.6149815213194 146.44911467814003 432.12797175795686 99.62380715979924 393.1963152959347L130.19581885377022 353.95399635942414C153.35429422472282 372.26896133267144 174.39461636052735 384.87903359258644 193.2744221964808 391.8406972254399C212.15422803243422 398.816481879861 232.13547355066467 402.2902531855039 253.24640079430748 402.2902531855039C282.448673396216 402.2902531855039 305.28236527111255 394.325997021347 321.73335539742953 378.45396877930386C338.19846654531415 362.5678195156931 346.3886590545535 341.07562468972367 346.3886590545535 313.99150532296323C346.3886590545535 294.71631088311545 343.16906613712837 276.7543714490595 336.6733962160075 260.0774449776601C330.17772629488667 243.3722764631254 320.4624634563407 226.2293562799934 307.471123614099 208.59220034199348C294.4797837718572 190.96916542556124 270.572894257819 161.56919852170557 229.77726294886648 120.27933145788518L98.84715097357824 -14.294004081857793V-64H423.63064702962106V-7.515913729383897H169.45225881184842z" />
    <glyph glyph-name="2-Square-Filled"
      unicode="&#xF10C;"
      horiz-adv-x="512" d=" M0 448V-64H512V448H0zM324.26666666666665 89.60000000000002H187.73333333333332V112.11093333333332L241.3824 164.28373333333332C257.2032 180.28373333333332 268.5013333333333 191.7013333333333 273.536 198.5365333333333S282.78613333333334 212.01919999999998 285.312 218.48746666666662C287.82079999999996 224.97279999999998 289.2970666666667 231.92746666666662 289.2970666666667 239.3941333333333C289.2970666666667 249.90719999999996 286.2250666666667 258.2528 279.82506666666666 264.3968C273.4506666666667 270.55786666666665 264.66133333333335 273.63839999999993 253.32906666666668 273.63839999999993C245.13706666666667 273.63839999999993 237.41440000000003 272.27306666666664 230.0928 269.5935999999999C222.77973333333335 266.8970666666666 214.6218666666667 261.9989333333333 205.63626666666667 254.89066666666662L193.77493333333334 270.1311999999999C211.9338666666667 285.23519999999996 231.71413333333336 292.7872 253.1072 292.7872C271.6245333333334 292.7872 286.1568 288.06826666666666 296.6784 278.5792C307.19146666666666 269.1072 312.4650666666667 256.35839999999996 312.4650666666667 240.34986666666666C312.4650666666667 227.85706666666667 308.9664000000001 215.49226666666664 301.95200000000006 203.2725333333333C294.93760000000003 191.03573333333333 283.0506666666667 175.57333333333332 263.80800000000005 156.8768L221.86666666666667 114.66239999999999V115.19999999999999H324.26666666666665V89.60000000000002z" />
    <glyph glyph-name="3-Circular-Filled"
      unicode="&#xF10D;"
      horiz-adv-x="512" d=" M256 448C114.62826666666666 448 0 333.39733333333334 0 192S114.62826666666666 -64 256 -64C397.38026666666667 -64 512 50.602666666666664 512 192S397.38026666666667 448 256 448zM302.7370666666667 103.57759999999996C289.25440000000003 93.09866666666665 269.9690666666667 87.79093333333333 245.4186666666667 87.79093333333333C234.8714666666667 87.79093333333333 225.0581333333334 88.6101333333333 216.2602666666667 90.20586666666668C207.36000000000004 91.82719999999995 198.16960000000003 94.7029333333333 189.80693333333335 98.73919999999998L187.73333333333332 99.53280000000001V127.26613333333336L192.32426666666666 125.21813333333336C200.6272 121.12213333333335 209.8176 117.94773333333336 219.20426666666665 115.81440000000003C228.62506666666664 113.68106666666671 237.74719999999996 112.57173333333333 246.11839999999998 112.57173333333333C278.5706666666666 112.57173333333333 294.4 125.11573333333331 294.4 150.1184C294.4 172.30506666666668 276.9578666666667 183.4837333333333 240.96426666666665 183.4837333333333H221.55093333333335H221.86666666666667V209.08373333333333H221.55093333333335H241.24586666666667C255.92319999999998 209.08373333333333 267.6138666666667 211.66933333333333 276.0618666666667 218.04373333333334C284.3733333333333 224.29866666666666 288.4010666666666 232.46506666666667 288.4010666666666 243.6608C288.4010666666666 252.45013333333333 285.49973333333327 258.9866666666667 279.52639999999997 263.93600000000004C273.4848 268.97066666666666 265.05386666666664 271.4197333333333 254.46399999999997 271.4197333333333C246.1525333333333 271.4197333333333 238.25066666666666 270.22506666666663 230.91199999999995 268.0064C223.53919999999994 265.7450666666667 214.9802666666666 261.48693333333335 205.44853333333327 255.37706666666668L203.1957333333333 253.90933333333334L201.59999999999994 256.04266666666666L190.26773333333327 271.14666666666665L188.60373333333328 273.39093333333335L190.80533333333327 275.13173333333333C199.11679999999993 281.68533333333335 208.8106666666666 286.90773333333334 219.63093333333327 290.61973333333333C230.44266666666658 294.3573333333334 241.98826666666662 296.2517333333334 253.93493333333325 296.2517333333334C273.68106666666654 296.2517333333334 289.31413333333325 291.60106666666667 300.3989333333332 282.4277333333333C311.6629333333332 273.1264 317.35466666666656 260.2581333333334 317.35466666666656 244.15573333333336C317.35466666666656 230.90346666666667 313.55733333333325 219.8698666666667 306.0565333333333 211.38773333333336C300.5439999999999 205.1328 293.2991999999999 200.37973333333335 284.4245333333332 197.18826666666666C295.90186666666654 194.4576 304.87893333333324 189.7130666666667 311.1935999999999 183.02293333333336C319.31733333333324 174.42133333333334 323.43893333333324 163.0549333333334 323.43893333333324 149.23093333333333C323.41333333333324 129.60426666666672 316.46719999999993 114.26133333333337 302.7626666666666 103.62026666666668z" />
    <glyph glyph-name="3-CircularLines-Filled"
      unicode="&#xF10E;"
      horiz-adv-x="512" d=" M273.06666666666666 196.11306666666667V197.17973333333333C290.1333333333333 199.87626666666665 296.3968 205.2266666666667 303.47093333333333 213.2224C310.5194666666667 221.24373333333332 314.25706666666673 231.53493333333333 314.25706666666673 244.11306666666667C314.25706666666673 259.38773333333336 309.0517333333334 271.4197333333333 298.4362666666667 280.1834666666667C287.83786666666674 288.9301333333333 273.0069333333334 293.3248 253.84960000000004 293.3248C242.15893333333335 293.3248 231.06560000000002 291.4986666666667 220.5098666666667 287.8634666666667C209.9626666666667 284.21119999999996 200.6528 279.21066666666667 192.55466666666672 272.8277333333333L203.90400000000002 257.7237333333333C213.69173333333333 264.0042666666667 222.42133333333337 268.32213333333334 230.05013333333335 270.66026666666664C237.69600000000003 273.0069333333333 245.83680000000004 274.17599999999993 254.4554666666667 274.17599999999993C265.7792 274.17599999999993 274.7477333333334 271.4282666666667 281.36106666666666 265.9413333333333C287.96586666666667 260.45439999999996 291.2597333333333 252.91093333333328 291.2597333333333 243.29386666666664C291.2597333333333 231.26186666666663 286.78826666666663 223.92319999999998 277.77706666666666 217.16479999999996C268.8170666666667 210.38079999999994 256.6144 209.0837333333333 241.25439999999998 209.0837333333333H221.86666666666667V183.4837333333333H240.96426666666665C278.528 183.4837333333333 297.3184 172.59519999999992 297.3184 148.69333333333333C297.3184 121.98399999999998 280.2858666666666 109.18399999999997 246.2208 109.18399999999997C237.58506666666665 109.18399999999997 226.57706666666667 110.54933333333327 216.9088 112.74239999999998S196.26666666666665 118.3914666666667 187.73333333333332 122.62399999999997V101.31626666666665C196.26666666666665 97.3653333333333 206.208 94.60053333333332 214.89493333333334 93.03893333333332C223.5648 91.44319999999999 234.05226666666667 90.66666666666669 244.48853333333332 90.66666666666669C268.50986666666665 90.66666666666669 287.49653333333333 95.7354666666667 300.5184 105.8304C313.54879999999997 115.95093333333335 320.29866666666663 130.40640000000002 320.29866666666663 149.17973333333333C320.29866666666663 162.32106666666664 316.18559999999997 172.9024 308.5482666666666 181.00906666666668C300.9024 189.09866666666665 290.1333333333333 194.13333333333333 273.06666666666666 196.11306666666667z M256 448C114.61973333333333 448 0 333.38026666666667 0 192C0 50.602666666666664 114.61973333333333 -64 256 -64S512 50.602666666666664 512 192C512 333.38026666666667 397.38026666666667 448 256 448zM256 -40.98559999999998C127.5136 -40.98559999999998 22.99733333333333 63.53066666666666 22.99733333333333 192S127.5136 424.9856 256 424.9856C384.46933333333334 424.9856 488.9856 320.46933333333334 488.9856 192S384.46933333333334 -40.98559999999998 256 -40.98559999999998z" />
    <glyph glyph-name="3-Lines-Filled"
      unicode="&#xF10F;"
      horiz-adv-x="512" d=" M390.72711111111107 164.2382222222222C371.4417777777777 184.68977777777775 340.096 197.40444444444444 298.56711111111105 202.3822222222222V205.11288888888885C340.09599999999995 211.89688888888887 359.79377777777773 225.45066666666665 377.6426666666666 245.6462222222222C395.4488888888888 265.8417777777778 406.0017777777777 291.86844444444444 406.0017777777777 323.66933333333327C406.0017777777777 362.2684444444444 393.40088888888886 392.64711111111103 366.5635555555555 414.79111111111104C339.76888888888885 436.9351111111111 302.60622222222224 447.9857777777778 254.20799999999997 447.9857777777778C224.7253333333333 447.9857777777778 196.8213333333333 443.43466666666666 170.11199999999997 434.19022222222225C143.43111111111108 424.98844444444444 119.97866666666664 412.3448888888889 99.54133333333331 396.2168888888889L128.2275555555555 358.0586666666667C152.97422222222218 373.9306666666667 175.01866666666663 384.86755555555555 194.36088888888887 390.7697777777778C213.6604444444444 396.65777777777777 234.18311111111106 399.616 256.0142222222222 399.616C284.6008888888888 399.616 307.2995555555555 392.704 323.9964444444444 378.8515555555556C340.66488888888887 364.97066666666666 349.0275555555555 345.9128888888889 349.0275555555555 321.6213333333334C349.0275555555555 291.1857777777778 337.69244444444445 268.40177777777785 314.9795555555555 251.24977777777778C292.22399999999993 234.11200000000002 261.4471111111111 226.53155555555554 222.6346666666666 226.53155555555554H174.07999999999998V185.0311111111111H221.90933333333334C316.85688888888893 185.0311111111111 364.3164444444444 150.22933333333333 364.3164444444444 89.81333333333333C364.3164444444444 22.343111111111114 321.29422222222223 -13.66755555555551 235.23555555555552 -13.66755555555551C213.41866666666664 -13.66755555555551 187.36355555555554 -12.017777777777724 162.98666666666665 -6.456888888888898C138.55288888888887 -0.8817777777777565 118.75555555555555 6.087111111111085 91.06488888888886 16.72533333333331V-37.0915555555556C118.72711111111109 -47.08977777777784 135.9502222222222 -54.05866666666668 157.86666666666662 -58.0408888888889C179.76888888888882 -62.02311111111112 205.36888888888885 -63.9857777777778 231.73688888888884 -63.9857777777778C292.32355555555546 -63.9857777777778 339.8826666666666 -51.25688888888885 372.8213333333333 -25.685333333333347C405.7173333333333 -0.156444444444503 420.9493333333333 36.36622222222212 420.9493333333333 83.82577777777766C420.9493333333333 116.9635555555555 410.04088888888884 143.77244444444432 390.72711111111107 164.22399999999988z" />
    <glyph glyph-name="3-Square-Filled"
      unicode="&#xF110;"
      horiz-adv-x="512" d=" M0 448V-64H512V448H0zM301.71306666666663 105.79626666666672C288.65706666666665 95.64160000000004 270.08 90.58133333333336 246.02453333333332 90.58133333333336C235.58826666666667 90.58133333333336 223.89759999999998 91.38346666666672 215.20213333333334 92.94506666666672C206.49813333333336 94.53226666666671 196.28373333333334 97.2970666666667 187.7504 101.26506666666671V122.62399999999997C196.28373333333334 118.38293333333331 207.54773333333335 115.1658666666666 217.2416 112.96426666666667C226.93546666666668 110.74560000000002 237.1498666666667 109.63626666666664 245.80266666666668 109.63626666666664C279.9530666666667 109.63626666666664 297.55733333333336 121.89013333333332 297.55733333333336 148.65066666666667C297.55733333333336 172.62933333333336 279.25333333333333 183.4666666666667 241.57866666666672 183.4666666666667H221.86666666666667V209.06666666666666H241.83466666666666C257.24586666666664 209.06666666666666 269.44853333333333 210.46613333333335 278.4597333333333 217.25866666666667C287.47946666666667 224.08533333333335 291.97653333333335 232.50773333333333 291.97653333333335 244.5824C291.97653333333335 254.22506666666666 288.6485333333333 261.3077333333333 282.0437333333333 266.79466666666667C275.4304 272.2986666666667 266.4277333333333 274.79893333333337 255.0784 274.79893333333337C246.4256 274.79893333333337 238.26773333333333 273.5018666666666 230.61333333333332 271.15520000000004C222.95039999999997 268.8170666666666 214.21226666666664 264.41386666666665 204.39039999999997 258.11626666666666L193.04106666666667 273.2202666666667C201.14773333333332 279.6202666666667 210.49173333333334 284.6293333333333 221.0816 288.2816C231.6629333333333 291.9338666666667 242.82453333333336 293.7429333333333 254.5322666666667 293.7429333333333C273.7322666666667 293.7429333333333 288.6485333333333 289.3568 299.2810666666667 280.576C309.91360000000003 271.7866666666667 315.2384 259.73760000000004 315.2384 244.42026666666666C315.2384 231.79093333333333 310.95466666666664 221.4826666666667 303.8890666666667 213.46133333333333C296.80640000000005 205.44 290.1333333333333 200.08106666666666 273.06666666666666 197.36746666666667V196.25813333333335C290.1333333333333 194.2954666666667 301.42293333333333 189.24373333333335 309.0944 181.12853333333334C316.7488 173.0218666666667 320.95573333333334 162.39786666666674 320.95573333333334 149.23093333333333C320.95573333333334 130.38933333333335 314.78613333333334 115.90826666666663 301.71306666666663 105.77066666666661z" />
    <glyph glyph-name="4-Circular-Filled"
      unicode="&#xF111;"
      horiz-adv-x="512" d=" M256 448C114.61973333333333 448 0 333.39733333333334 0 192S114.61973333333333 -64 256 -64S512 50.602666666666664 512 192S397.38026666666667 448 256 448zM332.8 158.5664V132.26666666666665H298.6666666666667V89.60000000000002H300.032H273.06666666666666V132.26666666666665H179.2V158.6602666666667L180.05333333333334 159.40266666666673L273.7749333333333 292.94933333333336L274.7989333333333 294.4000000000001H300.01493333333326H298.6666666666667V157.86666666666673H332.8V158.56640000000004z M210.64533333333333 161.45066666666668H275.712V224.08533333333335C275.712 234.00106666666667 275.968 245.02613333333335 276.5226666666667 256.96426666666673C273.9370666666667 252.27093333333335 271.45386666666667 248.13226666666668 269.0816 244.5568L210.64533333333335 161.44213333333335z" />
    <glyph glyph-name="4-CircularLines-Filled"
      unicode="&#xF112;"
      horiz-adv-x="512" d=" M298.6666666666667 294.4H276.30933333333337L179.2 157.74719999999996V140.8H281.6V89.60000000000002H298.6666666666667V140.8H332.8V157.86666666666667H298.6666666666667V294.4zM281.6 224.08533333333332V157.86666666666667H205.09866666666667L266.70933333333335 246.4426666666667C270.4981333333333 252.1002666666667 274.53439999999995 260.2666666666667 278.85226666666665 268.80000000000007H279.936C279.04 251.73333333333335 281.6 236.93653333333333 281.6 224.08533333333335z M256 448C114.61973333333333 448 0 333.38026666666667 0 192C0 50.602666666666664 114.61973333333333 -64 256 -64S512 50.602666666666664 512 192C512 333.38026666666667 397.38026666666667 448 256 448zM256 -40.98559999999998C127.53066666666666 -40.98559999999998 23.014400000000002 63.53066666666666 23.014400000000002 192S127.53066666666666 424.9856 256 424.9856S488.9856 320.46933333333334 488.9856 192S384.46933333333334 -40.98559999999998 256 -40.98559999999998z" />
    <glyph glyph-name="4-Lines-Filled"
      unicode="&#xF113;"
      horiz-adv-x="512" d=" M369.77777777777777 106.66666666666669V448H308.69333333333327L71.11111111111111 103.05422222222222V49.77777777777783H312.88888888888886V-64H369.77777777777777V49.77777777777783H440.88888888888886V106.66666666666669H369.77777777777777zM312.88888888888886 275.34222222222223V106.66666666666669H123.80444444444444L283.8328888888889 334.8622222222222C293.6462222222222 349.58222222222224 304.17066666666665 362.6666666666667 315.3493333333333 391.1111111111111H318.15111111111105C315.8328888888888 348.44444444444446 312.8888888888888 308.76444444444445 312.8888888888888 275.34222222222223z" />
    <glyph glyph-name="4-Square-Filled"
      unicode="&#xF114;"
      horiz-adv-x="512" d=" M0 448V-64H512V448H0zM329.28426666666667 139.00799999999998H300.032V93.69599999999997H278.57919999999996V139.00799999999998H182.72426666666667V158.54933333333332L276.30933333333337 291.8912H300.03200000000004V159.36853333333335H329.28426666666667V138.9994666666667z M266.73493333333334 246.99733333333333L205.10719999999998 159.35999999999996H278.5792V224.87893333333332C278.5792 237.73013333333333 279.04 252.25386666666668 279.9445333333333 268.4330666666666H278.8607999999999C274.53439999999995 259.8144 270.49813333333327 252.66346666666666 266.7178666666666 246.9973333333333z" />
    <glyph glyph-name="5-Circular-Filled"
      unicode="&#xF115;"
      horiz-adv-x="512.0085333333333" d=" M256 448C114.61973333333333 448 0 333.39733333333334 0 192S114.61973333333333 -64 256 -64C397.37173333333334 -64 512 50.602666666666664 512 192S397.38026666666667 448 256 448zM300.45866666666666 107.34933333333333C286.99306666666666 95.31733333333335 268.27093333333335 89.21600000000001 244.82133333333334 89.21600000000001C222.18240000000003 89.21600000000001 202.89706666666666 92.93653333333333 190.80533333333332 100.28373333333332L187.73333333333332 101.13706666666667V129.5786666666666L193.85173333333333 126.72853333333325C199.85066666666665 122.88853333333327 208.29013333333333 119.81653333333327 217.28426666666664 117.62346666666662C226.35519999999997 115.38773333333324 235.85279999999997 114.26133333333325 244.6592 114.26133333333325C259.72906666666665 114.26133333333325 271.7098666666667 117.79413333333332 279.9018666666667 124.75733333333324C288.06826666666666 131.7034666666666 292.14720000000005 141.56799999999993 292.14720000000005 154.92266666666654C292.14720000000005 180.75306666666654 276.5994666666667 193.3055999999999 244.50560000000004 193.3055999999999C236.18560000000002 193.3055999999999 224.87893333333338 191.9999999999999 210.7989333333334 189.43999999999988L209.71520000000007 189.2351999999999L208.75946666666675 189.83253333333323L197.17973333333342 197.25653333333324L195.72906666666674 198.17813333333325L195.8741333333334 199.9103999999999L203.2981333333334 291.9423999999999L203.49440000000007 294.3999999999999H307.2V268.7999999999999H227.89973333333333L223.4624 215.8079999999999C232.69546666666668 217.4463999999999 241.97973333333331 218.1631999999999 251.14453333333333 218.1631999999999C272.5376 218.1631999999999 289.6725333333333 212.70186666666658 302.0544 201.9839999999999C314.5728 191.1637333333332 320.9130666666667 176.18773333333326 320.9130666666667 157.50826666666654C320.9130666666667 136.34559999999988 314.05226666666664 119.44959999999986 300.48426666666666 107.3322666666665z" />
    <glyph glyph-name="5-CircularLines-Filled"
      unicode="&#xF116;"
      horiz-adv-x="512" d=" M300.16853333333336 199.7482666666667C288.25600000000003 210.04800000000003 271.9232 215.1936 251.1530666666667 215.1936C240.91306666666668 215.1936 230.6048 212.90666666666667 220.2624 210.8416L225.27999999999997 268.8H307.2V294.4H206.11413333333334L198.69013333333334 200.9344L210.29546666666664 192.89600000000002C224.58026666666663 195.49866666666668 235.99786666666665 196.5056 244.53119999999998 196.5056C278.23786666666666 196.5056 295.09973333333335 182.57919999999996 295.09973333333335 155.08479999999997C295.09973333333335 140.97066666666666 290.73066666666665 130.0992 281.9584 122.65813333333335C273.2032 115.18293333333338 260.89813333333336 111.41973333333334 245.0944 111.41973333333334C236.00639999999999 111.41973333333334 227.92533333333333 112.54613333333333 218.58133333333333 114.8330666666667C209.2288 117.12 196.26666666666665 120.2688 196.26666666666665 124.30506666666668V102.7328C204.8 95.61599999999999 223.744 92.06613333333337 245.95626666666666 92.06613333333337C268.7914666666667 92.06613333333337 286.11413333333337 97.86880000000002 299.1189333333333 109.47413333333333C312.0896 121.07946666666669 318.3189333333333 137.06239999999997 318.3189333333333 157.46560000000005C318.3189333333333 175.35146666666668 312.064 189.43146666666667 300.1685333333333 199.73120000000003z M256 448C114.61973333333333 448 0 333.38026666666667 0 192C0 50.602666666666664 114.61973333333333 -64 256 -64S512 50.602666666666664 512 192C512 333.38026666666667 397.38026666666667 448 256 448zM256 -40.98559999999998C127.53066666666666 -40.98559999999998 23.014400000000002 63.53066666666666 23.014400000000002 192S127.53066666666666 424.9856 256 424.9856C384.4864 424.9856 489.00266666666664 320.46933333333334 489.00266666666664 192S384.4864 -40.98559999999998 256 -40.98559999999998z" />
    <glyph glyph-name="5-Lines-Filled"
      unicode="&#xF117;"
      horiz-adv-x="508.53910884259903" d=" M368.19644088839846 213.7471099461995C337.4580769761347 240.30415229686852 295.30583528762594 253.55442129948958 241.72558973651542 253.55442129948958C215.30980824941375 253.55442129948958 188.75276589874468 245.75682163056973 162.05446268450822 240.45953924679267L174.9374534418541 388.02063732928684H381.4043316319493V444.52498275624225H125.58090771140849L106.41180852531384 210.0884535798041L136.33085942888675 192.71336736101532C173.19994481997517 199.437384466823 202.66696096013243 203.6610842874879 224.68952959028832 203.6610842874879C311.67796937508626 203.6610842874879 355.1439370947717 168.60013795006205 355.1439370947717 97.65893226651946C355.1439370947717 61.21362946613323 343.8430680093806 33.597130638708734 321.24132983859846 14.357401020830423C298.63959166781626 -4.882328597047945 266.9124017105808 -14.417436887846634 226.08801213960547 -14.417436887846634C202.68108704648918 -14.417436887846634 181.23768795695958 -11.36620223479099 157.12445854600634 -5.489750310387706C132.98297696233965 0.45733204579943276 113.00869085391089 8.678714305421408 98.88260449717203 19.13201820940816V-36.52476203614293C127.13477721064976 -54.84629604083318 170.41710580769762 -64 227.71251207063042 -64C286.64654435094496 -64 331.68050765622843 -49.0263484618568 365.15933232169954 -19.12142364464063C398.6805352462409 10.797627258932266 414.8831562974203 52.04579942060974 414.8831562974203 104.7078493585322C414.8831562974203 150.84364739964127 398.92067871430544 187.1759415091737 368.1964408883984 213.76123603255618z" />
    <glyph glyph-name="5-Square-Filled"
      unicode="&#xF118;"
      horiz-adv-x="512" d=" M0 448V-64H512V448H0zM298.5472 110.28480000000002C285.55093333333326 98.69653333333338 268.7914666666666 92.8768 245.9477333333333 92.8768C223.74399999999994 92.8768 204.79999999999995 96.43520000000001 196.26666666666662 103.54346666666669V125.11573333333331C196.26666666666662 121.07093333333336 209.23733333333328 117.89653333333337 218.58133333333328 115.6096C227.92533333333327 113.30559999999997 236.56959999999995 112.17920000000004 245.63199999999998 112.17920000000004C261.4613333333333 112.17920000000004 273.4848 115.90826666666663 282.23999999999995 123.37493333333333C291.0037333333333 130.84159999999997 295.24479999999994 141.61919999999998 295.24479999999994 155.73333333333335C295.24479999999994 183.2448 278.2976 196.98346666666666 244.57386666666665 196.98346666666666C236.04053333333331 196.98346666666666 224.5888 195.6864 210.2869333333333 193.07520000000002L198.68159999999997 201.3354666666667L206.07999999999998 294.4H307.2V268.8H225.24586666666667L220.2624 211.2512C230.58773333333335 213.31626666666668 240.88746666666665 215.17653333333334 251.1530666666667 215.17653333333334C271.9146666666667 215.17653333333334 288.25600000000003 210.43200000000002 300.16853333333336 200.1408S318.0373333333334 175.96586666666667 318.0373333333334 158.07146666666665C318.0373333333334 137.67680000000001 311.53493333333336 121.89013333333332 298.54720000000003 110.28480000000002z" />
    <glyph glyph-name="6-Circular-Filled"
      unicode="&#xF119;"
      horiz-adv-x="512" d=" M256 448C114.62826666666666 448 0 333.39733333333334 0 192S114.62826666666666 -64 256 -64C397.39733333333334 -64 512 50.602666666666664 512 192S397.39733333333334 448 256 448zM305.60426666666666 106.28266666666667C293.91360000000003 94.02026666666666 277.9392 87.79946666666666 258.1589333333334 87.79946666666666C236.91093333333336 87.79946666666666 219.81013333333337 95.9061333333334 207.33440000000004 111.88053333333335C195.04640000000003 127.65013333333337 188.80000000000004 149.76853333333338 188.80000000000004 177.62133333333338C188.80000000000004 216.84906666666672 196.60800000000003 246.68160000000003 212.01066666666668 266.2997333333334C227.54133333333334 286.1226666666667 250.8032 296.18346666666673 281.07093333333336 296.18346666666673C291.456 296.18346666666673 299.4176 295.28746666666666 305.5018666666667 293.5125333333334L307.2085333333334 292.88960000000003V267.49440000000004L303.8378666666667 268.7317333333334C297.2330666666667 270.86506666666673 289.7237333333333 271.9573333333334 281.17333333333335 271.9573333333334C261.0346666666667 271.9573333333334 245.58933333333334 265.64266666666674 235.05920000000003 253.23520000000005C225.35680000000002 241.75786666666673 219.6138666666667 223.93173333333337 217.856 200.14080000000004C228.3008 212.71040000000002 243.5072 219.06773333333336 263.12533333333334 219.06773333333336C281.55733333333336 219.06773333333336 296.3626666666667 213.3674666666667 307.08906666666667 202.13760000000002C317.7728 190.9333333333334 323.19146666666666 175.59893333333338 323.19146666666666 156.59519999999998C323.19146666666666 135.43253333333337 317.2778666666667 118.5109333333333 305.6128 106.27413333333334z M258.9696 195.66933333333333C251.35786666666667 195.66933333333333 244.29226666666668 194.08213333333333 237.99466666666666 190.976C231.73119999999997 187.88693333333333 226.67946666666666 183.57759999999996 222.976 178.176C219.33226666666667 172.8512 217.48053333333334 167.27893333333333 217.48053333333334 161.60426666666672C217.48053333333334 152.79786666666672 219.20426666666668 144.47786666666673 222.62613333333334 136.89173333333338C225.97973333333334 129.40800000000002 230.79253333333335 123.40906666666672 236.96213333333336 119.05706666666663C243.0208 114.73919999999998 250.07786666666667 112.57173333333333 257.8688 112.57173333333333C269.8752 112.57173333333333 278.8949333333333 116.18986666666666 285.43146666666667 123.64800000000002C291.9850666666666 131.11466666666666 295.30453333333327 142.20799999999997 295.30453333333327 156.60373333333337C295.30453333333327 168.86613333333332 292.23253333333327 178.56000000000006 286.17386666666664 185.44640000000004C280.21759999999995 192.2218666666667 271.0698666666666 195.66933333333336 258.9525333333333 195.66933333333336z" />
    <glyph glyph-name="6-CircularLines-Filled"
      unicode="&#xF11A;"
      horiz-adv-x="512" d=" M263.15093333333334 215.68853333333334C241.7664 215.68853333333334 226.11626666666666 209.06666666666666 216.23466666666667 192H214.61333333333332C215.69706666666664 217.6 221.7984 241.42506666666668 232.94293333333331 254.592S261.2736 274.60266666666666 282.4021333333333 274.60266666666666C291.3024 274.60266666666666 298.65813333333335 273.73226666666665 307.19146666666666 271.488V290.77333333333337C298.65813333333335 292.48 292.2837333333334 293.33333333333337 282.1034666666667 293.33333333333337C252.62933333333336 293.33333333333337 229.83680000000004 283.74186666666674 214.7754666666667 264.5418666666667C199.71413333333336 245.37600000000006 191.93173333333337 216.4138666666667 191.93173333333337 177.6554666666667C191.93173333333337 150.34879999999998 197.76853333333338 129.01546666666667 209.71520000000004 113.68959999999998C221.67893333333336 98.36373333333336 237.78986666666668 90.70079999999996 258.20160000000004 90.70079999999996C277.2309333333333 90.70079999999996 292.33493333333337 96.57173333333333 303.53066666666666 108.30506666666668C314.73493333333334 120.03840000000002 320.2986666666667 136.15786666666668 320.2986666666667 156.6378666666667C320.2986666666667 174.96746666666667 315.1786666666667 189.23520000000002 304.9898666666667 199.936S280.8405333333334 215.72266666666667 263.1253333333334 215.72266666666667zM287.59040000000005 121.78773333333339C280.5418666666667 113.74080000000009 270.64320000000004 109.72160000000002 257.87733333333335 109.72160000000002C249.4293333333334 109.72160000000002 241.89440000000005 112.05120000000005 235.29813333333337 116.73600000000005C228.68480000000005 121.40373333333338 223.58186666666668 127.74400000000003 219.98080000000002 135.7397333333334C216.3968 143.74400000000003 214.60480000000004 152.37973333333338 214.60480000000004 161.63840000000005C214.60480000000004 167.91893333333337 216.59306666666672 173.98613333333344 220.59520000000006 179.84000000000003C224.6058666666667 185.69386666666674 229.96480000000005 190.27626666666674 236.72320000000005 193.60426666666672C243.4474666666667 196.93226666666672 250.8629333333334 198.58773333333338 258.9440000000001 198.58773333333338C271.97440000000006 198.58773333333338 281.77920000000006 194.8501333333334 288.3413333333334 187.40906666666672C294.9120000000001 179.93386666666675 298.1888 169.6853333333334 298.1888 156.64640000000009C298.1888 141.47413333333338 294.656 129.8517333333334 287.59040000000005 121.81333333333339z M256 448C114.6368 448 0 333.38026666666667 0 192C0 50.602666666666664 114.6368 -64 256 -64C397.39733333333334 -64 512 50.602666666666664 512 192C512 333.38026666666667 397.39733333333334 448 256 448zM256 -40.98559999999998C127.53066666666666 -40.98559999999998 23.014400000000002 63.53066666666666 23.014400000000002 192S127.53066666666666 424.9856 256 424.9856C384.4864 424.9856 489.00266666666664 320.46933333333334 489.00266666666664 192S384.4864 -40.98559999999998 256 -40.98559999999998z" />
    <glyph glyph-name="6-Lines-Filled"
      unicode="&#xF11B;"
      horiz-adv-x="512" d=" M379.7902222222222 212.5937777777778C354.00533333333334 239.616 318.7768888888889 251.84711111111113 274.01955555555554 251.84711111111113C219.94666666666666 251.84711111111113 180.43733333333333 233.50044444444444 155.43466666666666 191.9715555555556H151.33866666666665C154.04088888888887 261.1626666666667 169.4862222222222 316.87111111111113 197.7031111111111 350.17955555555557C225.83466666666666 383.43111111111114 266.86577777777774 400.66844444444445 320.2275555555555 400.66844444444445C342.6986666666666 400.66844444444445 366.6204444444444 398.5351111111111 380.4444444444444 392.84622222222225V441.5288888888889C366.6488888888889 445.8666666666667 345.25866666666667 448 319.5733333333333 448C245.10577777777775 448 188.72888888888886 423.76533333333333 150.6702222222222 375.2817777777778C112.61155555555554 326.784 93.49688888888888 253.59644444444444 93.49688888888888 155.7191111111111C93.49688888888888 86.67022222222221 108.60088888888887 32.79644444444443 138.8231111111111 -5.944888888888954C169.0311111111111 -44.68622222222223 209.89155555555553 -64 261.4471111111111 -64C309.6035555555555 -64 347.8044444444444 -49.20888888888885 376.07822222222217 -19.555555555555543C404.3377777777778 10.126222222222225 418.5031111111111 50.844444444444434 418.5031111111111 102.58488888888894C418.5031111111111 148.94933333333336 405.5893333333333 185.57155555555562 379.8186666666666 212.5937777777778zM335.87199999999996 14.478222222222257C318.03733333333327 -5.8595555555555165 292.97777777777776 -16.014222222222145 260.736 -16.014222222222145C239.40266666666662 -16.014222222222145 220.38755555555554 -10.126222222222168 203.70488888888886 1.706666666666763C186.97955555555552 13.511111111111177 174.09422222222221 29.511111111111177 165.0204444444444 49.70666666666676C155.91822222222217 69.94488888888901 151.36711111111106 91.76177777777787 151.36711111111106 115.15733333333344C151.36711111111106 131.0151111111112 156.43022222222217 146.36088888888895 166.52799999999996 161.09511111111118C176.62577777777773 175.88622222222227 190.1795555555555 187.44888888888897 207.23199999999997 195.8542222222223C224.27022222222217 204.28800000000007 243.00088888888885 208.45511111111117 263.4382222222222 208.45511111111117C296.3626666666666 208.45511111111117 321.1377777777777 199.04000000000008 337.73511111111105 180.1955555555556C354.3039999999999 161.33688888888895 362.5955555555555 135.4382222222223 362.5955555555555 102.49955555555556C362.5955555555555 64.12800000000004 353.6782222222222 34.77333333333337 335.85777777777776 14.463999999999999H335.88622222222216z" />
    <glyph glyph-name="6-Square-Filled"
      unicode="&#xF11C;"
      horiz-adv-x="512.0085333333333" d=" M258.9696 199.33866666666665C250.88 199.33866666666665 243.46453333333332 197.67466666666667 236.7232 194.3552S224.63146666666665 186.4448 220.62933333333334 180.61653333333334C216.63573333333332 174.75413333333336 214.6304 168.69546666666668 214.6304 162.40640000000002C214.6304 153.13920000000007 216.4224 144.50346666666672 220.032 136.5162666666667C223.616 128.512 228.736 122.18026666666674 235.33226666666667 117.50400000000002C241.93706666666665 112.81066666666675 249.47199999999998 110.4896 257.91999999999996 110.4896C270.6773333333333 110.4896 280.59306666666663 114.50026666666668 287.6501333333333 122.55573333333336S298.2314666666666 142.2250666666667 298.2314666666666 157.4144C298.2314666666666 170.44480000000004 294.9461333333333 180.71040000000005 288.39253333333335 188.1514666666667C281.8218666666666 195.5754666666667 272.0256 199.33013333333335 258.9952 199.33013333333335z M0 448V-64H512V448H0zM303.53066666666666 109.05600000000004C292.3264 97.33973333333336 277.21386666666666 91.46026666666671 258.1589333333333 91.46026666666671C237.76426666666666 91.46026666666671 221.57653333333334 99.12320000000005 209.62133333333335 114.45760000000001C197.6746666666667 129.77493333333337 191.68426666666667 151.10826666666674 191.68426666666667 178.42346666666674C191.68426666666667 217.16480000000004 199.2106666666667 246.11840000000007 214.272 265.3098666666667C229.32479999999998 284.50986666666677 251.59679999999997 294.1013333333334 281.08799999999997 294.1013333333334C291.24266666666665 294.1013333333334 299.2298666666666 293.24800000000005 305.08373333333327 291.5413333333334V272.2560000000001C298.1717333333333 274.50880000000006 290.2528 275.63520000000005 281.3610666666666 275.63520000000005C260.23253333333327 275.63520000000005 244.09599999999995 269.06453333333343 232.9514666666666 255.88906666666674C221.7898666666666 242.71360000000007 215.67999999999992 222.0117333333334 214.60479999999995 193.78346666666675H216.22613333333328C226.12479999999996 209.24586666666676 241.74079999999995 216.97706666666676 263.1594666666666 216.97706666666676C280.8490666666666 216.97706666666676 294.81813333333326 211.63520000000008 305.0069333333333 200.9344000000001C315.2042666666666 190.23360000000008 320.30719999999997 175.72693333333342 320.30719999999997 157.38026666666678C320.30719999999997 136.8832000000001 314.7093333333333 120.77226666666678 303.5136 109.03893333333343z" />
    <glyph glyph-name="7-Circular-Filled"
      unicode="&#xF11D;"
      horiz-adv-x="512" d=" M256 448C114.60266666666666 448 0 333.39733333333334 0 192S114.60266666666666 -64 256 -64C397.3632 -64 512 50.602666666666664 512 192S397.3632 448 256 448zM332.8 290.56V272.01706666666666L334.1312 271.4538666666667L254.29333333333332 91.78453333333334L254.32746666666668 89.61706666666669H223.14666666666665L225.04959999999997 95.06133333333332L304.85333333333335 268.8H196.28373333333332V294.4H333.1157333333333H332.8V290.56z" />
    <glyph glyph-name="7-CircularLines-Filled"
      unicode="&#xF11E;"
      horiz-adv-x="512" d=" M204.8 268.8H309.3845333333333L227.66933333333333 89.60000000000002H252.48426666666668L332.8 272.64V294.4H204.8 M256 448C114.61973333333333 448 0 333.38026666666667 0 192C0 50.602666666666664 114.61973333333333 -64 256 -64S512 50.602666666666664 512 192C512 333.38026666666667 397.38026666666667 448 256 448zM256 -40.98559999999998C127.53066666666666 -40.98559999999998 23.014400000000002 63.53066666666666 23.014400000000002 192S127.53066666666666 424.9856 256 424.9856C384.4864 424.9856 489.00266666666664 320.46933333333334 489.00266666666664 192S384.4864 -40.98559999999998 256 -40.98559999999998z" />
    <glyph glyph-name="7-Lines-Filled"
      unicode="&#xF11F;"
      horiz-adv-x="512" d=" M85.33333333333333 448V391.1111111111111H364.7288888888889L152.5048888888889 -64H216.93155555555555L426.66666666666663 401.4222222222222V448" />
    <glyph glyph-name="7-Square-Filled"
      unicode="&#xF120;"
      horiz-adv-x="512" d=" M0 448V-64H512V448H0zM324.26666666666665 272.1877333333333L240.9216 89.60000000000002H216.04693333333333L297.9669333333333 268.8H187.73333333333332V294.4H324.26666666666665V272.1877333333333z" />
    <glyph glyph-name="8-Circular-Filled"
      unicode="&#xF121;"
      horiz-adv-x="512" d=" M251.56266666666667 184.11520000000002C239.17226666666664 178.688 230.08426666666668 172.6805333333333 224.53760000000003 166.25493333333338C218.93120000000002 159.76960000000008 216.192 152.20906666666667 216.192 143.12960000000004C216.192 133.16266666666672 219.52 125.6362666666667 226.3722666666667 120.15786666666668C233.30986666666666 114.61120000000005 243.3536 111.77813333333336 256.18773333333337 111.77813333333336C268.8170666666667 111.77813333333336 278.7328 114.72213333333337 285.61066666666665 120.53333333333342C292.4629333333333 126.30186666666674 295.7653333333333 134.0501333333334 295.7653333333333 144.22186666666676C295.7653333333333 152.19200000000006 292.6250666666666 159.12106666666676 286.1397333333333 165.4016000000001C279.6117333333333 171.7418666666668 267.9637333333333 178.03093333333345 251.57973333333328 184.1237333333334z M256 448C114.60266666666666 448 0 333.39733333333334 0 192S114.60266666666666 -64 256 -64C397.37173333333334 -64 512 50.602666666666664 512 192S397.37173333333334 448 256 448zM305.52746666666667 103.11680000000001C293.6234666666667 92.96213333333338 277.2138666666667 87.79946666666666 256.74240000000003 87.79946666666666C235.1274666666667 87.79946666666666 218.18880000000001 92.6634666666667 206.39573333333337 102.23786666666666C194.41493333333338 112 188.33920000000003 125.90933333333334 188.33920000000003 143.65013333333337C188.33920000000003 165.93920000000003 201.13920000000005 183.7397333333334 226.39786666666672 196.6250666666667C216.04693333333339 203.08480000000003 208.30720000000005 210.08213333333333 203.40906666666672 217.49760000000003C197.71733333333339 226.0650666666667 194.83306666666672 235.78453333333337 194.83306666666672 246.38293333333337C194.83306666666672 261.5125333333334 200.55040000000008 273.77493333333337 211.75466666666674 282.80320000000006C222.78826666666671 291.6778666666667 237.67040000000006 296.18346666666673 255.9573333333334 296.18346666666673C274.52586666666673 296.18346666666673 289.51040000000006 291.74613333333343 300.50133333333343 283.0165333333334C311.6800000000001 274.1418666666667 317.36320000000006 261.7173333333334 317.36320000000006 246.11840000000007C317.36320000000006 235.8186666666667 314.1205333333334 226.30400000000006 307.7376000000001 217.8389333333334C302.2933333333334 210.58560000000003 293.9648000000001 203.84426666666673 282.93973333333344 197.78560000000004C296.6442666666668 190.70293333333336 306.72213333333343 183.21920000000006 312.97706666666676 175.4453333333334C320.08533333333344 166.55360000000007 323.70346666666677 156.12586666666675 323.70346666666677 144.45226666666673C323.70346666666677 127.30026666666674 317.5936000000001 113.39093333333335 305.5616000000001 103.0997333333334z M256.9984 209.49333333333334C268.80853333333334 214.54506666666666 277.2565333333333 219.98933333333335 282.12906666666663 225.63840000000002C287.0613333333333 231.35573333333335 289.4506666666666 237.84106666666668 289.4506666666666 245.46986666666666C289.4506666666666 253.71306666666666 286.60053333333326 260.0618666666667 280.7466666666666 264.8832C274.77333333333326 269.78133333333335 266.3253333333332 272.2645333333333 255.6586666666666 272.2645333333333C245.16266666666658 272.2645333333333 236.91093333333325 269.77279999999996 231.0826666666666 264.84053333333327C225.33119999999994 260.0021333333333 222.54933333333327 253.66186666666664 222.54933333333327 245.46986666666663C222.54933333333327 237.87519999999995 224.8959999999999 231.52639999999997 229.7599999999999 226.09919999999997C234.6239999999999 220.65493333333328 243.77173333333323 215.09119999999996 256.9983999999999 209.50186666666661z" />
    <glyph glyph-name="8-CircularLines-Filled"
      unicode="&#xF122;"
      horiz-adv-x="512" d=" M276.5653333333333 197.73440000000002C289.7919999999999 204.288 299.4005333333333 211.5584 305.408 219.57973333333334C311.4496 227.57546666666667 314.4533333333333 236.42453333333333 314.4533333333333 246.13546666666667C314.4533333333333 260.8725333333333 309.20533333333333 272.41813333333334 298.68373333333335 280.7808S273.92 293.3248 255.93173333333337 293.3248C238.23360000000005 293.3248 224.10240000000002 289.09226666666666 213.5210666666667 280.5930666666667S197.70026666666672 260.7104 197.70026666666672 246.4085333333333C197.70026666666672 236.33919999999998 200.37973333333338 227.24266666666665 205.78133333333338 219.10186666666667S220.08320000000003 203.40053333333333 232.4906666666667 196.4032C204.96213333333338 183.808 191.21493333333336 166.22933333333333 191.21493333333336 143.66719999999998C191.21493333333336 126.77120000000002 196.88106666666673 113.71519999999998 208.21333333333337 104.49919999999997C219.52853333333337 95.28319999999997 235.7162666666667 90.67519999999996 256.75093333333336 90.67519999999996C276.61653333333334 90.67519999999996 292.24960000000004 95.55626666666666 303.66720000000004 105.30986666666666S320.8021333333334 128.1450666666667 320.8021333333334 144.47786666666667C320.8021333333334 155.57119999999998 317.4229333333334 165.28213333333332 310.68160000000006 173.69599999999997C303.94026666666673 182.08426666666662 292.5653333333334 190.09706666666665 276.5653333333334 197.76zM227.63520000000008 224.17919999999998C222.3189333333334 230.10986666666665 219.66506666666672 237.2096 219.66506666666672 245.47839999999997C219.66506666666672 254.48106666666664 222.86506666666673 261.6576 229.24800000000008 267.0677333333333C235.63093333333342 272.4437333333333 244.4373333333334 275.14026666666666 255.66720000000007 275.14026666666666C267.10186666666675 275.14026666666666 276.06186666666673 272.46933333333334 282.5813333333334 267.1189333333333S292.3605333333334 254.55786666666663 292.3605333333334 245.47839999999997C292.3605333333334 237.20106666666663 289.67253333333343 229.98186666666663 284.3221333333334 223.7781333333333S269.87520000000006 211.7973333333333 257.0154666666667 206.3957333333333C242.7392000000001 212.32639999999998 232.95146666666676 218.25706666666665 227.64373333333342 224.19626666666665zM287.4880000000001 118.35733333333332C280.0213333333334 112.05973333333333 269.58506666666676 108.91093333333333 256.2048000000001 108.91093333333333C242.61973333333344 108.91093333333333 232.0896000000001 111.93173333333334 224.58880000000008 117.95626666666669C217.07946666666675 123.97226666666666 213.32480000000007 132.37759999999997 213.32480000000007 143.15520000000004C213.32480000000007 152.88320000000004 216.33706666666674 161.2202666666667 222.3701333333334 168.192S238.0885333333334 181.50400000000002 251.46880000000007 187.27253333333334C268.9194666666667 180.87253333333337 281.1392 174.30186666666668 288.1621333333334 167.50080000000003C295.15946666666673 160.71680000000003 298.65813333333335 152.96853333333337 298.65813333333335 144.2474666666667C298.65813333333335 133.28213333333338 294.9290666666667 124.65493333333336 287.46240000000006 118.3658666666667z M256 448C114.61973333333333 448 0 333.38026666666667 0 192C0 50.602666666666664 114.61973333333333 -64 256 -64S512 50.602666666666664 512 192C512 333.38026666666667 397.38026666666667 448 256 448zM256 -40.98559999999998C127.53066666666666 -40.98559999999998 23.014400000000002 63.53066666666666 23.014400000000002 192S127.53066666666666 424.9856 256 424.9856C384.4864 424.9856 489.00266666666664 320.46933333333334 489.00266666666664 192S384.4864 -40.98559999999998 256 -40.98559999999998z" />
    <glyph glyph-name="8-Lines-Filled"
      unicode="&#xF123;"
      horiz-adv-x="512" d=" M394.1404444444444 145.63555555555553C377.1306666666666 166.88355555555552 348.3448888888889 187.16444444444443 307.9537777777778 206.44977777777777C341.33333333333337 223.04711111111112 365.63911111111116 241.43644444444445 380.87111111111113 261.66044444444447C396.0888888888889 281.8844444444444 403.68355555555553 304.256 403.68355555555553 328.78933333333333C403.68355555555553 365.99466666666666 390.3857777777778 395.2071111111111 363.80444444444447 416.35555555555555C337.2088888888889 437.504 301.22666666666663 448 255.8008888888889 448C211.05777777777777 448 175.34577777777778 437.29066666666665 148.6506666666667 415.82933333333335C121.94133333333335 394.3537777777778 108.62933333333335 365.568 108.62933333333335 329.472C108.62933333333335 304.0426666666667 115.45600000000002 281.04533333333336 129.08088888888892 260.4942222222222C142.73422222222223 239.94311111111114 165.20533333333336 220.77155555555555 196.55111111111114 203.06488888888887C127.06133333333334 171.24977777777775 92.30222222222224 126.89066666666662 92.30222222222224 69.84533333333331C92.30222222222224 27.178666666666686 106.59555555555556 -5.816888888888968 135.25333333333336 -29.098666666666645C163.83999999999997 -52.408888888888896 204.71466666666666 -64 257.84888888888884 -64C308.05333333333334 -64 347.59111111111105 -51.68355555555553 376.4622222222222 -27.050666666666643C405.2764444444444 -2.3893333333332976 419.69777777777773 30.606222222222243 419.69777777777773 71.93600000000004C419.69777777777773 99.84000000000003 411.16444444444437 124.41600000000005 394.14044444444437 145.69244444444445V145.64977777777779zM184.2204444444444 273.26577777777777C170.8515555555555 288.25600000000003 164.16711111111107 306.19022222222225 164.16711111111107 327.0826666666667C164.16711111111107 349.8097777777778 172.1884444444444 367.9715555555556 188.34488888888885 381.5964444444445C204.47288888888883 395.22133333333335 226.74488888888885 402.048 255.11822222222213 402.048C283.9466666666666 402.048 306.631111111111 395.264 323.0719999999999 381.76711111111115C339.5413333333332 368.25600000000003 347.7902222222221 350.0231111111111 347.7902222222221 327.0684444444445C347.7902222222221 306.1617777777778 341.0062222222221 287.9146666666667 327.50933333333325 272.24177777777777C313.96977777777767 256.5973333333334 290.9582222222221 241.92000000000002 258.503111111111 228.2951111111111C222.42133333333325 243.29955555555557 197.67466666666658 258.304 184.23466666666656 273.28zM335.559111111111 5.816888888888911C316.68622222222217 -10.069333333333304 290.3324444444443 -18.047999999999945 256.5119999999999 -18.047999999999945C222.19377777777768 -18.047999999999945 195.5697777777777 -10.453333333333319 176.62577777777767 4.778666666666652C157.639111111111 19.996444444444478 148.13866666666655 41.18755555555555 148.13866666666655 68.49422222222222C148.13866666666655 93.01333333333332 155.74755555555546 114.048 170.96533333333323 131.64088888888892C186.183111111111 149.248 210.70222222222213 165.3191111111111 244.5795555555555 179.8826666666667C288.6684444444444 163.75466666666665 319.5306666666666 147.0862222222222 337.223111111111 129.93422222222222C354.97244444444436 112.8391111111111 363.8186666666666 93.24088888888889 363.8186666666666 71.1537777777778C363.8186666666666 43.51999999999998 354.4035555555555 21.703111111111127 335.5448888888888 5.80266666666671z" />
    <glyph glyph-name="8-Square-Filled"
      unicode="&#xF124;"
      horiz-adv-x="512" d=" M251.47733333333332 188.01493333333337C238.07999999999998 182.272 228.37759999999997 175.8976 222.36159999999998 168.93440000000004C216.33706666666666 161.96266666666668 213.33333333333334 153.63413333333335 213.33333333333334 143.9317333333334C213.33333333333334 133.1285333333334 217.088 124.73173333333335 224.59733333333332 118.71573333333339C232.0896 112.6826666666667 242.62826666666666 109.67040000000003 256.2048 109.67040000000003C269.6021333333333 109.67040000000003 280.0298666666667 112.81066666666675 287.488 119.10826666666674C294.95466666666664 125.3888 298.6922666666667 134.02453333333335 298.6922666666667 144.98986666666673C298.6922666666667 153.71946666666673 295.1936 161.45920000000007 288.1706666666667 168.26026666666672C281.14773333333335 175.0698666666667 268.91946666666666 181.65760000000006 251.47733333333335 188.03200000000004z M0 448V-64H512V448H0zM303.6672 106.10346666666663C292.2496 96.34986666666663 276.6165333333333 91.46879999999993 256.73386666666664 91.46879999999993C235.70773333333332 91.46879999999993 219.5285333333333 96.07679999999993 208.20479999999998 105.29279999999994C196.85546666666662 114.4831999999999 191.19786666666664 127.56479999999993 191.19786666666664 144.4607999999999C191.19786666666664 167.0143999999999 204.9536 184.58453333333324 232.45653333333334 197.17119999999989C220.04906666666665 204.16853333333324 211.1488 211.7461333333332 205.76426666666666 219.88693333333322C200.3712 228.01919999999987 197.67466666666667 237.12426666666656 197.67466666666667 247.1935999999999C197.67466666666667 261.47839999999985 202.96533333333332 272.87893333333324 213.51253333333332 281.36106666666655C224.0768 289.85173333333324 238.21653333333333 294.1013333333332 255.92319999999998 294.1013333333332C273.8944 294.1013333333332 288.1365333333333 289.9199999999999 298.67519999999996 281.5573333333332C309.17119999999994 273.19466666666654 314.43626666666665 261.6490666666665 314.43626666666665 246.9119999999999C314.43626666666665 237.18399999999988 311.41546666666665 228.34346666666656 305.3909333333333 220.34773333333325C299.37493333333333 212.3434666666666 289.7749333333333 205.0559999999999 276.5482666666666 198.5023999999999C292.5397333333333 190.86506666666656 303.9061333333333 182.84373333333326 310.6474666666666 174.43839999999994C317.38879999999995 166.03306666666663 320.75946666666664 156.2965333333333 320.75946666666664 145.2373333333333C320.75946666666664 128.88746666666668 315.0677333333333 115.82293333333325 303.6501333333333 106.06933333333325z M284.31359999999995 224.54613333333333C289.664 230.75840000000002 292.3349333333333 237.98613333333333 292.3349333333333 246.25493333333333C292.3349333333333 255.32586666666666 289.0752 262.5536 282.5557333333333 267.8954666666667C276.0362666666666 273.24586666666664 267.07626666666664 275.9168 255.6501333333333 275.9168C244.40319999999994 275.9168 235.59679999999994 273.2202666666667 229.19679999999994 267.82720000000006C222.82239999999996 262.4341333333333 219.6394666666666 255.24053333333336 219.6394666666666 246.25493333333338C219.6394666666666 237.97760000000005 222.28479999999993 230.89493333333337 227.5754666666666 224.94720000000004C232.8917333333333 219.03360000000004 242.6794666666666 213.0858666666667 256.97279999999995 207.17226666666673C269.8581333333333 212.5738666666667 278.94613333333325 218.3509333333334 284.2965333333333 224.56320000000005z" />
    <glyph glyph-name="9-Circular-Filled"
      unicode="&#xF125;"
      horiz-adv-x="512" d=" M275.11466666666666 264.96000000000004C269.0304 269.15840000000003 261.94773333333336 271.3088 254.03733333333335 271.3088C241.9626666666667 271.3088 232.94293333333334 267.5712 226.44053333333335 259.91679999999997C219.91253333333333 252.20266666666666 216.61013333333332 241.22879999999998 216.61013333333332 227.23413333333332C216.61013333333332 215.07413333333332 219.63093333333333 205.43146666666667 225.6128 198.59626666666665C231.46666666666667 191.8805333333333 240.67413333333334 188.45866666666666 252.9536 188.45866666666666C260.6592 188.45866666666666 267.83573333333334 190.04586666666665 274.2869333333333 193.152C280.6698666666666 196.24106666666663 285.7642666666667 200.51626666666664 289.41653333333335 205.81546666666668C293.0176 211.05493333333334 294.8437333333334 216.59306666666666 294.8437333333334 222.26773333333335C294.8437333333334 231.2448 293.06880000000007 239.63306666666668 289.58720000000005 247.2192C286.1141333333334 254.70293333333333 281.2501333333334 260.66773333333333 275.1061333333334 264.9429333333334z M256 448C114.60266666666666 448 0 333.39733333333334 0 192S114.60266666666666 -64 256 -64C397.37173333333334 -64 512 50.602666666666664 512 192S397.37173333333334 448 256 448zM230.86079999999998 87.80799999999999C220.19413333333333 87.80799999999999 212.40319999999997 88.74666666666667 206.0544 90.60693333333336L204.8 91.20426666666668V116.608L207.75253333333333 115.37920000000003C214.62186666666665 113.16053333333338 222.17386666666667 112.03413333333333 230.99733333333333 112.03413333333333C251.56266666666667 112.03413333333333 267.0762666666667 118.41706666666664 277.43573333333336 131.01226666666662C287.07840000000004 142.66879999999998 292.65066666666667 160.3669333333333 294.3317333333333 183.71413333333328C289.70666666666665 178.37226666666663 284.02346666666665 174.08853333333332 277.45279999999997 170.9568C268.9194666666666 166.88640000000004 259.1744 164.81279999999998 248.54186666666664 164.81279999999998C230.39146666666664 164.81279999999998 215.7141333333333 170.35946666666666 204.9365333333333 181.32479999999998C194.20159999999998 192.24746666666667 188.7488 207.63306666666668 188.7488 227.0208C188.7488 248.18346666666667 194.78186666666667 265.19039999999995 206.72853333333333 277.56373333333335C218.69226666666665 289.9541333333333 234.61546666666666 296.23466666666667 254.0288 296.23466666666667C267.9552 296.23466666666667 280.3285333333333 292.5994666666667 290.7904 285.4144C301.22666666666663 278.2464 309.36746666666664 267.7077333333333 314.9397333333333 254.06293333333332C320.46079999999995 240.6144 323.2511999999999 224.57173333333333 323.2511999999999 206.3957333333333C323.2511999999999 127.73546666666664 292.1557333333333 87.84213333333332 230.85226666666662 87.84213333333332z" />
    <glyph glyph-name="9-CircularLines-Filled"
      unicode="&#xF126;"
      horiz-adv-x="512" d=" M289.16906666666665 283.0165333333333C279.15093333333334 289.88586666666663 267.43466666666666 293.3162666666667 254.0544 293.3162666666667C235.36639999999997 293.3162666666667 220.26239999999999 287.3856 208.8277333333333 275.5328C197.35039999999998 263.6458666666667 191.61599999999999 247.45813333333336 191.61599999999999 226.97813333333335C191.61599999999999 208.29013333333333 196.75306666666665 193.72373333333334 206.976 183.28746666666666C217.23306666666667 172.8512 231.08266666666665 167.67146666666667 248.51626666666664 167.67146666666667C258.75626666666665 167.67146666666667 267.97226666666666 170.31680000000006 276.16426666666666 174.24213333333336C284.3306666666667 178.12480000000005 290.9013333333333 183.45813333333336 295.85066666666665 191.99146666666667H297.472C296.46506666666664 166.3914666666667 290.4746666666667 143.20640000000003 279.46666666666664 129.86880000000002S251.5456 109.47413333333333 229.95626666666666 109.47413333333333C220.79146666666665 109.47413333333333 213.33333333333334 110.30186666666668 204.8 112.63146666666665V93.34613333333334C213.33333333333334 91.55413333333331 219.81866666666667 90.64959999999996 230.22933333333333 90.64959999999996C289.92 90.64959999999996 320.0597333333333 129.2202666666667 320.0597333333333 206.336C320.0597333333333 224.256 317.5168 239.7610666666667 312.1237333333333 252.928C306.7477333333333 266.112 299.2042666666666 276.1216 289.16906666666665 283.008zM291.7973333333333 204.19413333333333C287.8464 198.44266666666667 282.4277333333333 193.8944 275.5498666666666 190.57493333333332C268.69759999999997 187.24693333333335 261.1626666666666 185.59146666666663 252.98773333333332 185.59146666666663C239.76106666666664 185.59146666666663 229.94773333333333 189.29493333333335 223.46239999999997 196.7104C216.97706666666662 204.1344 213.75146666666666 214.31466666666665 213.75146666666666 227.24266666666665C213.75146666666666 242.00533333333334 217.25013333333334 253.50826666666666 224.26453333333333 261.77706666666666C231.26186666666666 270.0544 241.20319999999998 274.19306666666665 254.04586666666668 274.19306666666665C262.5792 274.19306666666665 270.1738666666667 271.8890666666666 276.7701333333333 267.3152S288.52053333333333 256.4352 292.21546666666666 248.43093333333331S297.73653333333334 231.72266666666664 297.73653333333334 222.29333333333332C297.73653333333334 216.01279999999997 295.7568 209.97973333333331 291.80586666666665 204.22826666666663z M256 448C114.6368 448 0 333.38026666666667 0 192C0 50.602666666666664 114.6368 -64 256 -64C397.39733333333334 -64 512 50.602666666666664 512 192C512 333.38026666666667 397.39733333333334 448 256 448zM256 -40.98559999999998C127.53066666666666 -40.98559999999998 23.014400000000002 63.53066666666666 23.014400000000002 192S127.53066666666666 424.9856 256 424.9856S488.9856 320.46933333333334 488.9856 192S384.46933333333334 -40.98559999999998 256 -40.98559999999998z" />
    <glyph glyph-name="9-Lines-Filled"
      unicode="&#xF127;"
      horiz-adv-x="512" d=" M397.98044444444446 345.98400000000004C384.35555555555555 379.23555555555555 364.87111111111113 404.57955555555554 339.55555555555554 421.93066666666664S284.68622222222217 448 250.8088888888889 448C203.5911111111111 448 165.47555555555556 433.0097777777778 136.54755555555556 403.02933333333334C107.59111111111112 373.07733333333334 93.12711111111112 332.2026666666667 93.12711111111112 280.4337777777778C93.12711111111112 233.216 106.06933333333333 196.38044444444446 131.9537777777778 170.01244444444444C157.8382222222222 143.6728888888889 192.82488888888886 130.5315555555556 236.85688888888888 130.5315555555556C262.74133333333333 130.5315555555556 286.0373333333333 137.216 306.7164444444444 147.14311111111112C327.3671111111111 156.98488888888892 343.9075555555555 164.30933333333337 356.4231111111111 191.9715555555556H360.50488888888884C358.01599999999996 122.80888888888893 342.8693333333333 68.7502222222223 315.0506666666666 35.04355555555554C287.2462222222221 1.308444444444433 246.92622222222218 -16.44088888888882 192.45511111111108 -16.44088888888882C169.27288888888884 -16.44088888888882 145.13777777777776 -14.392888888888876 131.29955555555554 -8.476444444444382V-57.17333333333323C145.13777777777776 -61.72444444444437 166.79822222222222 -63.999999999999886 193.1662222222222 -63.999999999999886C343.9502222222222 -63.999999999999886 418.9155555555555 33.42222222222239 418.9155555555555 228.2666666666668C418.9155555555555 273.46488888888905 411.66222222222217 312.68977777777786 398.00888888888886 345.9840000000001zM346.23999999999995 222.8195555555557C336.24177777777777 208.2560000000001 322.5884444444444 196.79288888888905 305.19466666666665 188.4017777777779C287.8151111111111 180.0106666666668 268.78577777777775 175.800888888889 248.1351111111111 175.800888888889C214.7555555555555 175.800888888889 189.85244444444444 185.18755555555566 173.5111111111111 203.9324444444446C157.15555555555554 222.64888888888902 149.02044444444442 248.3484444444446 149.02044444444442 281.0737777777779C149.02044444444442 318.2791111111112 157.86666666666665 347.3777777777779 175.58755555555555 368.2844444444446C193.28 389.1626666666668 218.39644444444446 399.6160000000001 250.82311111111107 399.6160000000001C272.4408888888889 399.6160000000001 291.5413333333333 393.81333333333345 308.2524444444444 382.22222222222234C324.9208888888889 370.6595555555557 337.9342222222222 354.7733333333334 347.22133333333335 334.53511111111123C356.5511111111111 314.33955555555565 361.2017777777778 292.3235555555557 361.2017777777778 268.472888888889C361.2017777777778 252.5866666666668 356.224 237.3546666666668 346.24 222.84800000000013z" />
    <glyph glyph-name="9-Square-Filled"
      unicode="&#xF128;"
      horiz-adv-x="512.0085333333333" d=" M276.7701333333333 268.11733333333336C270.17386666666664 272.69120000000004 262.5877333333333 274.97813333333335 254.0544 274.97813333333335C241.20319999999998 274.97813333333335 231.27039999999997 270.8394666666667 224.25599999999997 262.5706666666666C217.24159999999998 254.3104 213.74293333333333 242.80746666666667 213.74293333333333 228.06186666666667C213.74293333333333 215.1168 216.98559999999998 204.93653333333333 223.45386666666667 197.51253333333335C229.92213333333333 190.10560000000004 239.7696 186.3936 252.9792 186.3936C261.15413333333333 186.3936 268.68053333333336 188.05759999999998 275.5584 191.37706666666668C282.44480000000004 194.70506666666668 287.8464 199.2448 291.80586666666665 204.99626666666666C295.7568 210.75626666666668 297.73653333333334 216.77226666666667 297.73653333333334 223.06986666666666C297.73653333333334 232.54186666666666 295.9104 241.24586666666664 292.224 249.25013333333334C288.53759999999994 257.24586666666664 283.392 263.53493333333336 276.7786666666666 268.12586666666664z M0 448V-64H512V448H0zM230.86079999999998 91.47733333333332C220.43306666666663 91.47733333333332 212.17279999999997 92.3648 206.0544 94.1738666666667V113.45920000000001C213.23946666666663 111.12106666666665 221.4144 109.94346666666667 230.58773333333332 109.94346666666667C252.15999999999997 109.94346666666667 268.4501333333333 116.61653333333334 279.46666666666664 129.9712C290.4746666666667 143.33440000000002 296.4821333333333 163.80586666666665 297.472 191.4112H295.85066666666665C290.90133333333335 183.94453333333337 284.3306666666667 178.2698666666667 276.16426666666666 174.3445333333333C267.97226666666666 170.43626666666665 258.75626666666665 168.4821333333333 248.51626666666664 168.4821333333333C231.08266666666665 168.4821333333333 217.23306666666664 173.68746666666664 206.9845333333333 184.11520000000002C196.74453333333332 194.55146666666667 191.6245333333333 209.10080000000002 191.6245333333333 227.80586666666667C191.6245333333333 248.28586666666666 197.34186666666665 264.4821333333333 208.81066666666663 276.3434666666667C220.2709333333333 288.2048 235.34933333333328 294.1354666666667 254.0373333333333 294.1354666666667C267.43466666666666 294.1354666666667 279.14239999999995 290.6965333333334 289.1605333333333 283.81013333333334C299.1957333333333 276.94079999999997 306.89279999999997 266.9141333333333 312.2858666666666 253.75573333333335C317.68746666666664 240.58880000000002 320.3754666666666 225.05813333333336 320.3754666666666 207.16373333333334C320.3754666666666 130.048 290.5429333333333 91.48586666666671 230.86079999999995 91.48586666666671z" />
    <glyph glyph-name="A-Circular-Filled"
      unicode="&#xF129;"
      horiz-adv-x="512" d=" M256 448C114.61973333333333 448 0 333.39733333333334 0 192S114.61973333333333 -64 256 -64S512 50.602666666666664 512 192S397.38026666666667 448 256 448zM343.36426666666665 89.60000000000002H317.67893333333336L316.9621333333333 89.94133333333332L293.1370666666666 149.33333333333331H218.06079999999994L194.50879999999998 89.96693333333332L193.79199999999997 89.60000000000002H164.40319999999997L165.95626666666664 93.81546666666668L243.89119999999997 292.15573333333333L244.6165333333333 294.4H267.8101333333333L268.5269333333333 292.2922666666667L346.0608 93.94346666666667L347.5968 89.59146666666669H343.38133333333326z M256.03413333333333 255.0186666666667C254.3872 249.14773333333335 252.38186666666667 245.05173333333335 250.0608 238.5322666666667L228.352 183.4666666666667H283.8016L262.34880000000004 238.50666666666666C260.30080000000004 243.8656 258.1845333333334 247.97866666666667 256.0341333333334 255.01866666666666z" />
    <glyph glyph-name="A-CircularLines-Filled"
      unicode="&#xF12A;"
      horiz-adv-x="512" d=" M246.56213333333332 294.4L168.61866666666668 89.60000000000002H191.82933333333332L216.0896 157.86666666666667H295.1082666666666L319.6416 89.60000000000002H343.36426666666665L265.83893333333333 294.4H246.5536zM224.17066666666665 174.93333333333334L247.36426666666665 236.7146666666667C251.05066666666664 247.05706666666669 253.8837333333333 256.8960000000001 255.86346666666665 265.52320000000003C259.0037333333333 254.29333333333338 262.06719999999996 244.27520000000004 265.02826666666664 236.5354666666667L287.9488 174.93333333333334H224.17066666666665z M256 448C114.61973333333333 448 0 333.38026666666667 0 192S114.61973333333333 -64 256 -64S512 50.61973333333333 512 192S397.38026666666667 448 256 448zM256 -40.98559999999998C127.52213333333334 -40.98559999999998 23.00586666666667 63.53066666666666 23.00586666666667 192S127.52213333333334 424.9856 256 424.9856C384.46933333333334 424.9856 488.9856 320.46933333333334 488.9856 192S384.46933333333334 -40.98559999999998 256 -40.98559999999998z" />
    <glyph glyph-name="A-Lines-Filled"
      unicode="&#xF12B;"
      horiz-adv-x="512" d=" M281.5573333333333 448H231.4951111111111L29.056 -64H89.31555555555555L152.34844444444443 92.44444444444446H357.5751111111111L421.29066666666665 -64H482.9297777777778L281.5431111111111 448zM173.36888888888888 149.33333333333337L233.5715555555555 309.0204444444445C243.1573333333333 335.9004444444445 250.49599999999998 361.00266666666664 255.6444444444444 383.4026666666667C263.8222222222222 354.2471111111111 271.74399999999997 328.8177777777778 279.46666666666664 308.76444444444445L338.9866666666667 149.33333333333337H173.36888888888888z" />
    <glyph glyph-name="A-Square-Filled"
      unicode="&#xF12C;"
      horiz-adv-x="512" d=" M255.86346666666668 271.4112C253.88373333333334 262.7925333333333 251.05920000000003 254.08853333333334 247.36426666666668 243.7632L224.17066666666665 183.4666666666667H287.9573333333333L265.02826666666664 243.75466666666668C262.06719999999996 251.4944 259.0122666666666 260.1813333333333 255.86346666666662 271.4026666666667z M0 448V-64H512V448H0zM319.6416 98.13333333333333L295.09973333333335 157.86666666666667H216.0810666666667L191.82080000000002 98.13333333333333H168.61013333333335L246.54506666666668 294.4H265.8304L343.3557333333333 98.13333333333333H319.616z" />
    <glyph glyph-name="Ampersand-Circular-Filled"
      unicode="&#xF12D;"
      horiz-adv-x="512" d=" M209.93706666666665 183.93599999999998C205.80693333333335 179.92533333333336 202.752 175.64159999999998 200.77226666666667 171.0506666666667C198.8096 166.4682666666667 197.80266666666665 161.26293333333336 197.80266666666665 155.4176C197.80266666666665 144.90453333333335 201.28426666666667 136.55893333333336 208.256 130.3978666666667C215.2192 124.25386666666668 224.50346666666667 121.18186666666668 236.1088 121.18186666666668C257.74933333333337 121.18186666666668 275.72906666666665 128.0938666666667 290.0138666666667 141.952L231.09973333333338 199.12533333333332C221.1157333333334 192.99839999999998 214.0586666666667 187.94666666666666 209.92000000000004 183.95306666666664z M256 448C114.62826666666666 448 0 333.3632 0 192C0 50.602666666666664 114.62826666666666 -64 256 -64C397.38026666666667 -64 512 50.602666666666664 512 192C512 333.3632 397.38026666666667 448 256 448zM329.53173333333336 106.66666666666669L304.5888 129.2202666666667C293.9818666666667 119.7056 283.19573333333335 112.13653333333332 272.23040000000003 108.00640000000004S249.0368 101.43573333333336 235.5541333333333 101.43573333333336C216.2261333333333 101.43573333333336 201.25013333333334 106.01813333333331 190.58346666666665 115.54986666666662C179.9168 125.10719999999998 174.60906666666665 138.16319999999996 174.60906666666665 154.9738666666666C174.60906666666665 166.66453333333328 177.7237333333333 176.96426666666662 183.97866666666664 185.9498666666666C190.22506666666663 194.93546666666663 201.43786666666665 203.98079999999993 217.61706666666666 213.17119999999997C209.97119999999998 221.7045333333333 204.78293333333332 228.1557333333333 202.04373333333334 232.55893333333327C199.31306666666666 236.9706666666666 197.12853333333334 241.54453333333328 195.49866666666668 246.29759999999993C193.87733333333333 251.07626666666658 193.0752 256.02559999999994 193.0752 261.14559999999994C193.0752 274.6282666666666 197.47840000000002 285.1242666666666 206.30186666666668 292.68479999999994C215.09120000000001 300.23679999999996 227.3792 304.0085333333333 243.09760000000003 304.0085333333333C257.6554666666667 304.0085333333333 269.1242666666667 300.25386666666657 277.4698666666667 292.74453333333327C285.83253333333334 285.23519999999996 290.0138666666667 274.79893333333325 290.0138666666667 261.4015999999999C290.0138666666667 251.78453333333326 286.9589333333334 242.90986666666655 280.8490666666667 234.7775999999999C274.73920000000004 226.63679999999988 264.6357333333334 218.3935999999999 250.50453333333337 210.03093333333325L305.39093333333335 157.3119999999999C310.42560000000003 162.88426666666658 314.4362666666667 168.9173333333332 317.4570666666667 176.42666666666656C320.4778666666667 183.96159999999992 323.02080000000007 192.0255999999999 325.0858666666667 200.55893333333324H347.73333333333335C341.6234666666667 174.95893333333322 332.40746666666666 157.2949333333333 320.1024 143.98293333333328L360.4053333333333 106.66666666666669H329.5317333333333z M236.62933333333334 223.64159999999998C248.23466666666667 230.3829333333333 256.2986666666667 236.61226666666664 260.82986666666665 242.3125333333333C265.3696 248.01279999999997 267.6565333333333 254.60053333333332 267.6565333333333 262.0586666666667C267.6565333333333 268.9706666666666 265.33546666666666 274.61973333333333 260.70186666666666 278.9717333333333C256.09386666666666 283.34079999999994 249.9072 285.5168 242.18453333333332 285.5168C234.1632 285.5168 227.67786666666666 283.34079999999994 222.70293333333333 279.03146666666663C217.71093333333332 274.71359999999993 215.2192 268.9109333333333 215.2192 261.6234666666666C215.2192 255.42826666666664 216.82346666666666 249.5061333333333 220.0576 243.90826666666663S228.82133333333334 231.5349333333333 236.63786666666667 223.6245333333333z" />
    <glyph glyph-name="Ampersand-CircularLines-Filled"
      unicode="&#xF12E;"
      horiz-adv-x="512" d=" M347.73333333333335 200.53333333333333H325.0858666666667C323.02080000000007 192 320.4778666666667 183.93599999999998 317.4656 176.41813333333334C314.44480000000004 168.90879999999999 310.4256 162.6368 305.39093333333335 157.04746666666665L250.52160000000003 209.88586666666663C264.6272 218.2485333333333 274.73920000000004 226.55999999999997 280.8490666666667 234.69226666666665C286.9674666666667 242.8245333333333 290.02240000000006 251.74186666666665 290.02240000000006 261.3589333333333C290.02240000000006 274.7392 285.84106666666673 285.20959999999997 277.4784000000001 292.7274666666666C269.1157333333334 300.23679999999996 257.6640000000001 303.9914666666666 243.08906666666675 303.9914666666666C227.36213333333342 303.9914666666666 215.0997333333334 300.23679999999996 206.2933333333334 292.65919999999994C197.4869333333334 285.1071999999999 193.0837333333334 274.5941333333333 193.0837333333334 261.1114666666666C193.0837333333334 255.99146666666664 193.88586666666674 251.0421333333333 195.50720000000007 246.28053333333332C197.12853333333342 241.50186666666664 199.31306666666674 236.92799999999997 202.07786666666672 232.51626666666664C204.8085333333334 228.1045333333333 210.01386666666673 221.64479999999998 217.6341333333334 213.09439999999998C201.4549333333334 203.92959999999997 190.24213333333338 194.85866666666664 184.01280000000006 185.87306666666666C177.75786666666673 176.8789333333333 174.62613333333337 166.54506666666663 174.62613333333337 154.86293333333333C174.62613333333337 138.05226666666664 179.95093333333338 124.88533333333334 190.60053333333337 115.35359999999997C201.2501333333334 105.83893333333327 216.24320000000003 101.06879999999995 235.57120000000003 101.06879999999995C249.05386666666672 101.06879999999995 261.2821333333334 103.13386666666662 272.2474666666667 107.27253333333329S294.0074666666667 119.67999999999995 304.6058666666667 129.20319999999992L329.5317333333333 106.66666666666669H360.4053333333333L320.0853333333333 143.95733333333334C332.40746666666666 157.26933333333335 341.61493333333334 174.93333333333334 347.73333333333335 200.5333333333333zM215.1936 261.6661333333333C215.1936 268.95359999999994 217.68533333333335 274.74773333333326 222.6773333333333 279.04853333333324C227.66933333333333 283.3834666666666 234.1632 285.53386666666665 242.15893333333332 285.53386666666665C249.89013333333332 285.53386666666665 256.06826666666666 283.36639999999994 260.70186666666666 278.99733333333324C265.344 274.64533333333327 267.65653333333336 268.9962666666666 267.65653333333336 262.0842666666666C267.65653333333336 254.62613333333329 265.3781333333334 248.0469333333333 260.84693333333337 242.34666666666664C256.3072 236.62933333333328 248.2346666666667 230.39999999999998 236.64640000000006 223.65866666666662C228.8298666666667 231.59466666666663 223.30880000000005 238.33599999999993 220.07466666666673 243.96799999999993C216.83200000000005 249.5658666666666 215.21066666666673 255.48799999999994 215.21066666666673 261.68319999999994zM236.11733333333336 121.18186666666662C224.51200000000006 121.18186666666662 215.23626666666672 124.25386666666662 208.2645333333334 130.39786666666657C201.3013333333334 136.56746666666658 197.81120000000004 144.9045333333333 197.81120000000004 155.41759999999994C197.81120000000004 161.27146666666664 198.7754666666667 166.46826666666664 200.76373333333336 171.05066666666664C202.72640000000004 175.6330666666666 205.79840000000004 179.9253333333333 209.92853333333338 183.93599999999998S221.13280000000003 192.98133333333328 231.09120000000004 199.09973333333332L290.02240000000006 141.9264C275.7461333333334 128.1024 257.7664000000001 121.17333333333329 236.0917333333334 121.17333333333329z M256 448C114.61973333333333 448 0 333.3632 0 192C0 50.602666666666664 114.61973333333333 -64 256 -64S512 50.602666666666664 512 192C512 333.3632 397.38026666666667 448 256 448zM256 -40.98559999999998C127.53066666666666 -40.98559999999998 23.014400000000002 63.53066666666666 23.014400000000002 192S127.53066666666666 424.9856 256 424.9856C384.4778666666666 424.9856 488.99413333333337 320.46933333333334 488.99413333333337 192S384.4778666666666 -40.98559999999998 256 -40.98559999999998z" />
    <glyph glyph-name="Ampersand-Lines-Filled"
      unicode="&#xF12F;"
      horiz-adv-x="511.98577817282853" d=" M388.68253659620564 39.66289825282627C419.7287853115191 73.22641037748951 442.96725090969693 120.86953140190548 458.3979333907392 191.9786672592428H401.22618816143995C396.0209994166829 163.5350129163079 389.6069553623511 147.6065664842643 382.0267214799589 128.69153634621262C374.4180439432238 109.73384072664652 364.24943751562455 92.56809533068525 351.5635676786756 78.53115191244689L213.0998583372684 211.22079942223826C248.71131357462292 232.32599094469595 274.22527152023554 252.9760839976667 289.65595400127773 273.5124024332657C305.07241465514846 294.03449904169327 312.7806449820838 316.32010221938276 312.7806449820838 340.61098302824917C312.7806449820838 374.40204438765585 302.2564928751979 400.7408683092136 281.1370795255687 419.68434210160825C260.060331657454 438.5567067581456 231.13313519068913 448 194.38393377961722 448C154.70503597122303 448 123.74411821893838 438.4713757951168 101.51540234993472 419.4141273853504C79.28668648093108 400.35687897558404 68.19366128718646 373.80472764645424 68.19366128718646 339.8003388794756C68.19366128718646 326.85847615344017 70.2273825727063 314.40015555123466 74.30904697091746 302.35426793700174C78.39071136912862 290.33682397711175 83.89455848448654 278.78870031388016 90.80636648981972 267.6814532929641C97.7181744951529 256.54576261770507 110.83069914724591 240.23332685203187 130.10127496458432 218.6872586872587C89.2846309824727 195.5625677064526 60.98319491125246 172.66542596039 45.225410405266516 149.99583344907086S21.5887336462876 101.21496625093744 21.5887336462876 71.77578400599981C21.5887336462876 29.337851726340887 35.02836032332435 -3.8843365462070665 61.893391850226394 -27.919224465987043C88.77264520429989 -51.9683342129386 126.60270548040332 -63.98577817282853 175.38357267853672 -63.98577817282853C209.37373961834396 -63.98577817282853 240.23510458042833 -58.766367600900026 267.89655842893256 -48.31332462987149C295.5580122774368 -37.88872531318589 322.79281131079694 -24.065109302519488 349.52984639315576 -0.015999555567987045L412.47565345407077 -64.01422182717158H490.3828226993695L388.6967584233772 39.66289825282627zM124.01433293519626 341.1656342879364C124.01433293519626 359.5402349934724 130.30038054498488 374.16027332574095 142.87247576456213 385.054192939085C155.47301463848228 395.93389072525764 171.8565595400128 401.38085053192964 192.0373322963251 401.38085053192964C211.54967917557846 401.38085053192964 227.12257992833534 395.89122524374324 238.79870003611012 384.8835310130274C250.50326379822786 373.8758367823116 256.348434765701 359.6540096108441 256.348434765701 342.1896058442821C256.348434765701 323.35990666925915 250.63126024277102 306.7488125329852 239.1826893697397 292.3563234354601C227.73411849670842 277.9353906835921 207.368461987167 262.2487153134635 178.09994166828696 245.2394100163884C158.38848920863308 265.2068553651287 144.46532040776643 282.25882614371824 136.28776978417264 296.4379878336713C128.12444098775032 310.61714952362433 124.05699841671064 325.5358462264937 124.05699841671064 341.1798561151079zM176.77731174134053 -13.284964306547124C147.5087914224605 -13.284964306547124 124.09966389822505 -5.519846670925858 106.52148551429127 10.038832254659553C88.95752895752895 25.56906752590197 80.16843976556207 46.588928085330906 80.16843976556207 73.12685758728918C80.16843976556207 87.87489236410096 82.65725952056887 101.03008249770835 87.64912085775394 112.57820616093994C92.62676036776756 124.15477347851447 100.34921252187439 134.97758395600118 110.77381183856004 145.07508124774307C121.1984111552457 155.1156912307991 139.00413877392293 167.8868920307769 164.19099469459184 183.33179633899056L312.83753229076973 39.05135968445319C276.7852004110997 4.1652176328435075 231.43179356128996 -13.313407960889947 176.77731174134053 -13.313407960889947z" />
    <glyph glyph-name="Ampersand-Square-Filled"
      unicode="&#xF130;"
      horiz-adv-x="512" d=" M209.93706666666665 171.53706666666665C205.79840000000002 167.52639999999997 202.74346666666668 163.23413333333332 200.76373333333333 158.6517333333333S197.79413333333335 148.85546666666664 197.79413333333335 143.01866666666666C197.79413333333335 132.50560000000002 201.25866666666667 124.15999999999997 208.2304 117.9989333333333S224.47786666666667 108.76586666666662 236.07466666666664 108.76586666666662C257.7493333333333 108.76586666666662 275.7205333333333 115.67786666666666 290.00533333333334 129.53599999999994L231.0912 186.7093333333333C221.1072 180.58239999999995 214.05013333333332 175.5306666666666 209.92853333333332 171.5370666666666z M0 448V-64H512V448H0zM329.5232 91.3664L304.58026666666666 115.3706666666667C293.9733333333333 105.84746666666672 283.1872 99.02080000000007 272.22186666666664 94.89066666666673C261.27359999999993 90.75200000000007 249.04533333333328 88.67840000000001 235.56266666666664 88.67840000000001C216.23466666666664 88.67840000000001 201.25866666666664 93.44000000000005 190.59199999999998 102.97173333333336S174.60906666666662 125.67040000000003 174.60906666666662 142.48106666666672C174.60906666666662 154.17173333333335 177.74079999999998 164.49706666666668 183.9957333333333 173.49120000000005C190.22506666666663 182.4938666666667 201.44639999999998 191.5818666666667 217.61706666666666 200.73813333333337C209.97973333333331 209.2714666666667 204.79146666666665 215.75680000000006 202.05226666666664 220.1514666666667S197.13706666666664 229.14560000000003 195.51573333333332 233.89013333333335C193.8944 238.6688 193.07519999999997 243.61813333333336 193.07519999999997 248.73813333333334C193.07519999999997 262.2208 197.4869333333333 272.7338666666667 206.30186666666665 280.27733333333333S227.37919999999997 291.6096 243.0976 291.6096C257.65546666666665 291.6096 269.12426666666664 287.85493333333335 277.48693333333335 280.3456C285.83253333333334 272.85333333333335 290.0138666666667 262.4 290.0138666666667 249.00266666666667C290.0138666666667 239.37706666666668 286.9674666666667 230.51093333333333 280.8490666666667 222.37866666666665C274.73920000000004 214.23786666666666 264.6357333333334 205.9946666666667 250.51306666666673 197.632L305.3824000000001 144.91306666666668C310.41706666666676 150.47680000000003 314.4533333333334 157.0304 317.4570666666667 164.5397333333333S323.00373333333334 180.24106666666665 325.0773333333334 189.1413333333333H347.7333333333334C341.6149333333334 163.43039999999996 332.3989333333334 143.91466666666662 320.0853333333334 130.6282666666666L360.4053333333334 91.37493333333327H329.54026666666675z M236.62933333333334 211.23413333333335C248.2176 217.97546666666668 256.2901333333333 224.2048 260.8213333333333 229.90506666666667S267.6309333333333 242.19306666666668 267.6309333333333 249.65973333333335C267.6309333333333 256.5717333333333 265.32693333333333 262.22080000000005 260.6848 266.57280000000003S249.84746666666666 273.10080000000005 242.13333333333333 273.10080000000005C234.12906666666666 273.10080000000005 227.62666666666667 270.94186666666667 222.6517333333333 266.61546666666663C217.65973333333332 262.3061333333334 215.168 256.50346666666667 215.168 249.23306666666667C215.168 243.00373333333334 216.78933333333333 237.11573333333334 220.01493333333335 231.50080000000003C223.2576 225.88586666666666 228.78719999999998 219.1274666666667 236.60373333333334 211.20853333333335z" />
    <glyph glyph-name="Apostrophe-Circular-Filled"
      unicode="&#xF131;"
      horiz-adv-x="512" d=" M256 448C114.61973333333333 448 0 333.37173333333334 0 192C0 50.602666666666664 114.61973333333333 -64 256 -64S512 50.602666666666664 512 192C512 333.37173333333334 397.38026666666667 448 256 448zM266.0522666666667 277.2650666666667C261.632 265.3610666666667 257.05813333333333 251.73333333333335 252.29653333333331 243.2H235.84426666666664C242.1248 268.8 246.71573333333333 294.4 249.5829333333333 311.4666666666667H274.12479999999994L276.1472 308.56533333333334C273.84319999999997 299.5626666666667 270.46399999999994 289.1776 266.07786666666664 277.2650666666667z" />
    <glyph glyph-name="Apostrophe-CircularLines-Filled"
      unicode="&#xF132;"
      horiz-adv-x="512" d=" M256 448C114.61973333333333 448 0 333.38026666666667 0 192S114.61973333333333 -64 256 -64S512 50.61973333333333 512 192S397.38026666666667 448 256 448zM256 -40.994133333333366C127.52213333333334 -40.994133333333366 23.00586666666667 63.522133333333386 23.00586666666667 192C23.00586666666667 320.46933333333334 127.52213333333334 424.9856 256 424.9856S488.99413333333337 320.46933333333334 488.99413333333337 192C488.99413333333337 63.522133333333386 384.4778666666667 -40.994133333333366 256 -40.994133333333366z M249.6 311.4666666666667C246.71573333333333 294.4 242.13333333333333 268.8 235.84426666666664 243.2H252.29653333333331C257.0752 251.73333333333335 261.64906666666667 265.3525333333333 266.0352 277.24800000000005C270.45546666666667 289.1690666666667 273.8261333333333 299.5626666666667 276.16426666666666 308.5482666666667L274.1333333333333 311.4666666666667H249.6z" />
    <glyph glyph-name="Apostrophe-Lines-Filled"
      unicode="&#xF133;"
      horiz-adv-x="512" d=" M301.75288888888883 448H239.8435555555555C232.59022222222214 391.1111111111111 221.0275555555555 334.22222222222223 205.14133333333328 277.33333333333337H246.64177777777775C258.67377777777773 305.77777777777777 270.25066666666663 330.0408888888889 281.344 360.1066666666667C292.43733333333336 390.144 300.97066666666666 417.16622222222225 306.85866666666664 439.85066666666665L301.7386666666667 448z" />
    </font>
</defs>
</svg>
